<?xml version="1.0" encoding="UTF-8" standalone="no"?>
<!DOCTYPE svg PUBLIC "-//W3C//DTD SVG 1.1//EN" "http://www.w3.org/Graphics/SVG/1.1/DTD/svg11.dtd">
<svg width="100%" height="100%" viewBox="0 0 71 74" version="1.1" xmlns="http://www.w3.org/2000/svg" xmlns:xlink="http://www.w3.org/1999/xlink" xml:space="preserve" xmlns:serif="http://www.serif.com/" style="fill-rule:evenodd;clip-rule:evenodd;stroke-linecap:round;stroke-linejoin:round;">
    <g transform="matrix(1.33333,0,0,1.33333,-817.943,-25.7277)">
        <g opacity="0.399994">
            <g transform="matrix(1,0,0,1,640,74.2536)">
                <ellipse cx="-0.001" cy="-1.681" rx="20.594" ry="1.681" style="fill:rgb(0,66,92);"/>
            </g>
        </g>
    </g>
    <g transform="matrix(0,49.3926,48.9545,0,25.3563,46.2023)">
        <ellipse cx="-0.219" cy="0.205" rx="0.698" ry="0.704" style="fill:url(#_Radial1);"/>
    </g>
    <g transform="matrix(41.739,0,0,-43.7572,40.8551,51.8714)">
        <path d="M-0.773,0.811L-0.82,0.747L-0.89,0.599L-0.924,0.48L-0.956,0.338C-0.942,0.073 -0.792,-0.157 -0.57,-0.29C-0.58,-0.271 -0.626,-0.202 -0.642,-0.147C-0.66,-0.087 -0.682,0.091 -0.685,0.168C-0.688,0.245 -0.658,0.389 -0.658,0.389L-0.57,0.65C-0.57,0.65 -0.552,0.667 -0.558,0.696C-0.564,0.725 -0.762,0.825 -0.762,0.825L-0.773,0.811Z" style="fill:url(#_Radial2);fill-rule:nonzero;"/>
    </g>
    <g transform="matrix(41.739,0,0,-43.7572,40.8551,-4.1539)">
        <path d="M-0.517,-0.207C-0.509,-0.209 -0.503,-0.209 -0.503,-0.209C-0.503,-0.209 -0.323,-0.257 -0.27,-0.303C-0.218,-0.35 -0.061,-0.478 -0.061,-0.478L0.036,-0.57L0.086,-0.63L0.135,-0.614L0.338,-0.56L0.422,-0.534L0.41,-0.486C0.41,-0.486 0.334,-0.319 0.296,-0.287C0.267,-0.263 0.181,-0.192 0.143,-0.16C0.057,-0.132 -0.035,-0.116 -0.131,-0.116C-0.27,-0.116 -0.402,-0.149 -0.517,-0.207Z" style="fill:url(#_Radial3);fill-rule:nonzero;"/>
    </g>
    <g transform="matrix(41.739,0,0,-43.7572,40.8551,66.1568)">
        <path d="M0.687,0.787C0.687,0.787 0.544,0.647 0.309,0.595L0.072,0.528L-0.216,0.478L-0.304,0.48L-0.315,0.338L-0.279,0.106L-0.235,0.098L-0.082,0.074L0.028,0.07L0.135,0.086L0.246,0.106L0.397,0.164L0.527,0.248L0.579,0.301C0.653,0.419 0.695,0.556 0.695,0.703C0.695,0.733 0.693,0.762 0.69,0.79L0.687,0.787Z" style="fill:url(#_Radial4);fill-rule:nonzero;"/>
    </g>
    <g transform="matrix(1.33333,0,0,1.33333,-817.943,-25.7277)">
        <clipPath id="_clip5">
            <path d="M614.153,45.838C614.153,60.113 625.725,71.686 640,71.686C654.275,71.686 665.847,60.113 665.847,45.838C665.847,31.563 654.275,19.991 640,19.991C625.725,19.991 614.153,31.563 614.153,45.838Z" clip-rule="nonzero"/>
        </clipPath>
        <g clip-path="url(#_clip5)">
            <g transform="matrix(1,0,0,1,635.793,39.4859)">
                <path d="M0,13.558C-0.384,13.569 -0.678,13.225 -0.655,12.841C-0.383,8.387 0.156,4.589 0.412,2.953C0.471,2.573 0.804,2.132 1.152,1.97C5.073,0.148 18.583,-5.82 26.302,-5.749C26.43,-5.748 26.589,-5.658 26.652,-5.546C26.973,-4.984 27.954,-3.127 29.682,1.328C29.444,0.111 29.12,-1.075 28.717,-2.225C27.88,-4.16 27.102,-5.741 26.632,-6.189C26.626,-6.397 26.604,-6.616 26.568,-6.845C26.317,-7.269 26.056,-7.686 25.782,-8.094C25.941,-7.595 26.078,-7.02 26.144,-6.55C26.162,-6.424 26.067,-6.319 25.939,-6.322C25.293,-6.333 24.514,-6.383 22.496,-6.116C22.115,-6.065 21.73,-6.321 21.623,-6.689C19.947,-12.428 16.305,-15.943 13.667,-17.833C12.745,-18.194 11.796,-18.503 10.826,-18.758C12.558,-17.893 18.625,-14.369 20.935,-6.56C21.044,-6.192 20.815,-5.83 20.439,-5.75C17.67,-5.156 14.715,-4.241 11.93,-3.247C11.568,-3.118 11.085,-3.257 10.846,-3.558C2.076,-14.623 -4.502,-16.595 -7.478,-16.837C-7.918,-16.615 -8.351,-16.381 -8.776,-16.135C-7.296,-16.28 -0.125,-16.192 10.158,-3.304C10.398,-3.004 10.298,-2.65 9.938,-2.514C5.968,-1.009 2.56,0.537 0.866,1.332C0.519,1.495 -0.021,1.457 -0.34,1.244L-16.381,-9.465C-16.522,-9.281 -16.661,-9.096 -16.798,-8.908L-16.322,-8.59C-16.109,-8.448 -16.077,-8.18 -16.242,-7.983C-17.546,-6.425 -20.646,-1.924 -21.752,6.635C-21.738,7.996 -21.619,9.332 -21.402,10.635C-20.897,-0.353 -17.015,-5.95 -15.653,-7.59C-15.489,-7.787 -15.176,-7.825 -14.963,-7.682L-9.799,-4.234C-9.479,-4.021 -9.35,-3.566 -9.503,-3.213C-10.625,-0.619 -13.687,7.245 -13.585,15.552C-13.52,20.758 -11.761,25.07 -10.05,28.052C-9.628,28.329 -9.198,28.597 -8.759,28.85C-10.601,25.974 -12.818,21.328 -12.889,15.543C-12.989,7.48 -10.052,-0.169 -8.915,-2.821C-8.763,-3.174 -8.375,-3.285 -8.056,-3.071L-0.75,1.807C-0.43,2.02 -0.224,2.499 -0.284,2.879C-0.901,6.75 -2.98,21.705 0.145,30.287C0.189,30.408 0.13,30.542 0.007,30.58C-0.459,30.726 -1.43,30.956 -3.368,31.192C-2.994,31.305 -2.617,31.412 -2.236,31.509C-0.819,31.301 -0.071,31.104 0.322,30.959C0.442,30.915 0.613,30.94 0.712,31.022C1.358,31.556 2.18,31.97 3.062,32.289C3.442,32.306 3.823,32.316 4.207,32.316C4.396,32.316 4.584,32.312 4.773,32.308C3.344,31.977 1.961,31.548 0.923,30.591C0.421,29.812 0.187,28.403 -0.042,27.064C-0.107,26.685 0.14,26.456 0.515,26.538C1.897,26.844 4.619,27.33 7.936,27.33C8.786,27.33 9.675,27.298 10.591,27.223C15.095,26.853 20.996,25.347 25.872,20.662C26.473,19.754 27.017,18.807 27.502,17.825C22.46,24.223 15.606,26.11 10.556,26.528C5.911,26.913 1.927,26.174 0.391,25.828C0.016,25.743 -0.334,25.355 -0.387,24.975C-0.832,21.754 -0.885,18.189 -0.755,14.851C-0.744,14.564 -0.574,13.988 0.276,13.881L0,13.558Z" style="fill-rule:nonzero;"/>
            </g>
            <g transform="matrix(1,0,0,1,665.744,44.4045)">
                <path d="M0,-1.915C-0.01,-1.991 -0.017,-2.069 -0.028,-2.145C-3.433,2.952 -17.5,6.671 -24.781,7.969C-27.671,8.483 -29.19,8.617 -29.951,8.639C-30.335,8.651 -30.629,8.306 -30.605,7.922C-30.334,3.468 -29.795,-0.329 -29.539,-1.966C-29.48,-2.345 -29.147,-2.786 -28.799,-2.948C-24.878,-4.77 -11.368,-10.739 -3.649,-10.668C-3.621,-10.668 -3.592,-10.661 -3.563,-10.654L-3.649,-10.842C-11.368,-10.913 -24.878,-5.118 -28.799,-3.296C-29.147,-3.134 -29.654,-2.577 -29.713,-2.198C-29.969,-0.561 -30.566,3.874 -30.837,8.328C-30.861,8.711 -30.567,8.998 -30.183,8.987C-29.422,8.965 -27.671,8.831 -24.781,8.316C-17.5,7.019 -3.433,3.241 -0.028,-1.855L0,-1.915Z" style="fill-rule:nonzero;"/>
            </g>
            <g transform="matrix(1,0,0,1,635.793,42.9149)">
                <path d="M0,10.129L-0.437,10.779C-0.329,10.785 -0.115,10.779 0.03,10.779C0.9,10.779 2.47,10.646 5.292,10.143C6.144,9.991 24.846,6.592 30.042,0.341C30.009,0.006 29.969,-0.325 29.923,-0.656C26.518,4.442 12.451,8.161 5.17,9.458C2.28,9.973 0.761,10.107 0,10.129" style="fill-rule:nonzero;"/>
            </g>
            <g transform="matrix(1,0,0,1,648.163,32.4958)">
                <path d="M0,-11.309C-0.475,-11.466 -0.956,-11.61 -1.443,-11.74L-1.436,-11.713C0.424,-10.763 6.3,-7.227 8.565,0.431C7.948,-4.478 2.904,-9.632 0,-11.309" style="fill-rule:nonzero;"/>
            </g>
            <g transform="matrix(1,0,0,1,645.951,23.1436)">
                <path d="M0,13.038C0.067,13.113 0.289,13.187 0.289,13.187C-8.038,2.179 -15.628,-0.149 -18.332,-0.13C-18.534,-0.02 -18.735,0.092 -18.935,0.207C-16.727,0.423 -11.399,0.151 0,13.038" style="fill-rule:nonzero;"/>
            </g>
            <g transform="matrix(1,0,0,1,619.793,49.4198)">
                <path d="M0,-17.524C-1.28,-15.983 -4.785,-10.741 -5.622,-0.994C-5.583,-0.597 -5.534,-0.203 -5.477,0.188L-5.354,-0.148C-4.694,-10.575 -0.979,-15.927 0.348,-17.524C0.435,-17.629 0.564,-17.687 0.698,-17.698C0.429,-17.712 0.108,-17.653 0,-17.524" style="fill-rule:nonzero;"/>
            </g>
            <g transform="matrix(1,0,0,1,622.498,47.7128)">
                <path d="M0,7.325C-0.102,-0.982 2.777,-8.397 3.93,-10.978C4.291,-11.789 3.632,-12.474 3.158,-12.687C3.158,-12.687 3.905,-11.874 3.679,-11.298C2.648,-8.666 -0.45,-0.982 -0.348,7.325C-0.283,12.531 1.534,16.843 3.244,19.825C3.341,19.888 3.44,19.949 3.537,20.012C1.921,16.885 0.057,11.964 0,7.325" style="fill-rule:nonzero;"/>
            </g>
            <g transform="matrix(1,0,0,1,643.729,60.0419)">
                <path d="M0,6.485C-3.317,6.485 -7.421,5.983 -7.421,5.983C-7.421,5.983 -3.317,6.891 0,6.891C0.85,6.891 1.739,6.859 2.654,6.783C7.159,6.413 13.309,4.979 17.936,0.106C18.047,-0.063 18.155,-0.235 18.263,-0.406C13.388,4.334 6.937,6.026 2.654,6.378C1.739,6.453 0.85,6.485 0,6.485" style="fill-rule:nonzero;"/>
            </g>
            <g transform="matrix(1,0,0,1,635.335,63.7067)">
                <path d="M0,-21.226C-0.617,-17.355 -2.734,-3.496 0.603,6.066C-2.038,-2.994 -0.095,-17.644 0.522,-21.516C0.582,-21.895 0.376,-22.375 0.056,-22.588L-7.598,-27.292L-0.465,-22.298C-0.146,-22.085 0.06,-21.605 0,-21.226" style="fill-rule:nonzero;"/>
            </g>
            <g transform="matrix(1,0,0,1,622.69,25.7377)">
                <path d="M0,0.024C0.006,0.021 0.011,0.019 0.017,0.016C0.023,0.011 0.029,0.005 0.035,0C0.024,0.008 0.01,0.014 0,0.024" style="fill-rule:nonzero;"/>
            </g>
            <g transform="matrix(1,0,0,1,651.352,22.0311)">
                <path d="M0,0.005C-0.004,0.003 -0.009,0.002 -0.013,0C-0.011,0.002 -0.008,0.003 -0.006,0.004C-0.003,0.004 -0.002,0.005 0,0.005" style="fill-rule:nonzero;"/>
            </g>
            <g transform="matrix(1,0,0,1,664.534,59.4866)">
                <path d="M0,-4.804C-0.048,-4.709 -0.053,-4.511 -0.099,-4.44C-0.231,-4.211 -0.516,-3.708 -0.696,-3.494C-0.93,-3.234 -1.17,-3.184 -1.293,-2.6C-1.318,-2.406 -1.286,-2.167 -1.315,-2.042C-1.326,-2.021 -1.571,-1.478 -1.571,-1.478C-1.594,-1.469 -1.758,-1.243 -1.77,-1.197C-1.815,-1.026 -1.854,-0.849 -1.791,-0.788C-1.811,-0.705 -1.831,-0.644 -1.876,-0.509C-1.949,-0.212 -1.879,0.012 -1.713,-0.067C-1.296,-0.28 -1.062,-0.981 -0.822,-1.534C-0.526,-2.219 -0.27,-2.814 -0.087,-3.648C-0.064,-3.648 -0.06,-3.659 0,-3.636C0.002,-3.695 0.029,-3.746 0.034,-3.804C0.043,-4.084 0.207,-4.816 0,-4.804" style="fill-rule:nonzero;"/>
            </g>
            <g transform="matrix(1,0,0,1,666.369,45.336)">
                <path d="M0,-1.898C0.003,-1.898 0.006,-1.898 0.009,-1.898C-0.078,-2.728 -0.203,-3.546 -0.363,-4.352C-0.44,-4.1 -0.447,-3.772 -0.763,-3.846C-0.943,-3.881 -1.01,-3.987 -1.022,-4.154C-1.048,-4.292 -1.008,-4.382 -1.024,-4.524C-1.033,-4.566 -1.05,-4.613 -1.045,-4.656C-1.168,-4.667 -0.99,-4.507 -1.138,-4.473C-1.159,-4.576 -1.194,-4.629 -1.211,-4.758C-1.376,-4.865 -1.599,-5.416 -1.678,-5.715C-1.702,-5.808 -1.719,-5.864 -1.728,-5.993C-1.756,-6.165 -1.737,-6.358 -1.655,-6.335C-1.47,-6.261 -1.299,-5.871 -1.194,-5.596C-1.182,-5.544 -1.178,-5.451 -1.137,-5.376C-1.06,-5.213 -0.979,-5.271 -0.891,-5.108C-0.827,-4.978 -0.761,-4.816 -0.67,-4.725C-0.485,-4.64 -0.494,-4.676 -0.427,-4.641C-0.426,-4.643 -0.426,-4.645 -0.424,-4.647C-0.682,-5.871 -1.022,-7.064 -1.439,-8.219C-1.456,-8.228 -1.476,-8.24 -1.511,-8.253C-1.652,-8.32 -1.701,-8.331 -1.779,-8.439C-1.814,-8.534 -1.833,-8.611 -1.92,-8.682C-2.034,-8.754 -2.089,-8.839 -2.137,-8.96C-2.198,-9.069 -2.165,-9.121 -2.228,-9.251C-2.279,-9.331 -2.316,-9.34 -2.342,-9.433C-2.299,-9.396 -2.305,-9.399 -2.252,-9.377C-2.175,-9.568 -2.38,-9.654 -2.181,-9.708C-2.363,-9.917 -2.75,-10.535 -2.828,-10.825C-2.836,-10.917 -3.019,-11.099 -3.058,-11.226C-3.057,-11.272 -3.039,-11.463 -3.014,-11.541C-2.986,-11.514 -2.935,-11.517 -2.89,-11.524C-4.699,-14.994 -7.237,-18.015 -10.3,-20.381C-10.386,-20.389 -10.44,-20.375 -10.618,-20.432C-10.584,-20.529 -10.423,-20.383 -10.442,-20.468C-10.49,-20.533 -10.836,-20.586 -11.017,-20.647C-11.128,-20.703 -11.211,-20.738 -11.285,-20.794C-11.341,-20.783 -11.508,-20.849 -11.506,-20.819C-11.485,-20.78 -11.416,-20.758 -11.309,-20.71C-11.513,-20.748 -11.716,-20.835 -11.834,-20.786C-11.839,-20.82 -11.856,-20.821 -11.861,-20.856C-12.109,-20.918 -12.115,-20.854 -12.272,-20.886C-12.276,-20.91 -12.286,-20.911 -12.29,-20.936C-12.483,-20.981 -12.704,-21.045 -12.811,-21.044C-12.777,-21.021 -12.736,-20.994 -12.697,-20.981C-12.797,-20.982 -13.039,-21.046 -13.109,-21.077C-13.227,-21.109 -13.271,-21.103 -13.347,-21.07C-13.24,-21.047 -13.242,-21.049 -13.16,-21.011C-13.182,-21.025 -13.284,-20.979 -13.345,-20.991C-13.501,-21.024 -13.394,-21.018 -13.589,-21.066C-13.559,-21.119 -13.604,-21.064 -13.681,-21.109C-13.727,-21.096 -13.721,-21.085 -13.767,-21.072C-13.804,-21.073 -13.829,-21.102 -13.865,-21.109C-13.962,-21.127 -14.003,-21.145 -14.02,-21.072C-14.02,-21.072 -14.087,-21.054 -14.029,-21.032C-14.08,-21.04 -14.158,-21.024 -14.233,-21C-13.945,-20.915 -13.591,-20.878 -13.302,-20.823C-13.322,-20.665 -13.599,-20.648 -13.844,-20.656C-14.078,-20.673 -14.226,-20.639 -14.356,-20.56C-14.35,-20.556 -14.446,-20.462 -14.446,-20.462C-14.543,-20.477 -14.489,-20.301 -14.616,-20.289C-14.962,-20.219 -15.152,-20.144 -15.728,-20.174C-15.611,-20.132 -15.546,-20.129 -15.408,-20.08C-15.875,-20.19 -15.857,-20.056 -16.097,-20.054C-16.374,-20.075 -16.513,-20.016 -16.66,-19.939C-16.741,-19.886 -16.852,-19.869 -16.839,-19.78C-16.813,-19.588 -16.607,-19.318 -16.386,-19.173C-16.445,-19.121 -16.587,-19.087 -16.578,-19.039C-16.472,-19.024 -16.351,-19.018 -16.228,-19.022C-16.221,-18.987 -16.22,-18.961 -16.213,-18.927C-16.263,-18.917 -16.432,-18.919 -16.43,-18.863C-16.413,-18.841 -15.869,-18.621 -15.787,-18.599C-15.199,-18.534 -14.759,-18.639 -14.511,-18.78C-14.423,-18.723 -14.372,-18.655 -14.224,-18.586C-14.258,-18.575 -14.273,-18.543 -14.27,-18.509C-14.253,-18.391 -14.053,-18.333 -13.965,-18.23C-13.856,-18.067 -13.857,-17.985 -13.615,-17.84C-13.613,-17.816 -13.63,-17.805 -13.628,-17.78C-13.634,-17.746 -13.441,-17.392 -13.336,-17.368C-13.015,-17.31 -13.028,-17.611 -12.809,-17.57C-12.712,-17.558 -12.521,-17.497 -12.344,-17.463C-12.333,-17.601 -12.037,-17.544 -12.041,-17.69C-12.108,-17.723 -12.228,-17.759 -12.248,-17.836C-12.278,-17.974 -12.372,-18.232 -12.13,-18.169C-12.003,-18.161 -11.703,-18.213 -11.712,-18.3C-11.743,-18.417 -11.828,-18.58 -12.056,-18.651C-12.06,-18.7 -12.117,-18.746 -12.177,-18.779C-12.242,-18.846 -12.324,-18.925 -12.409,-18.989C-12.23,-18.993 -12.388,-19.113 -12.316,-19.181C-12.228,-19.25 -12.064,-19.252 -11.878,-19.249C-11.654,-19.257 -11.191,-19.28 -11.222,-19.401C-11.172,-19.428 -11.233,-19.443 -11.261,-19.523C-11.301,-19.693 -11.08,-19.707 -10.725,-19.594C-10.45,-19.51 -10.118,-19.359 -10.066,-19.238C-10.033,-19.123 -10.408,-19.098 -10.543,-19.103C-10.799,-19.103 -10.656,-18.904 -11.125,-19.044C-11.111,-18.991 -11.088,-18.823 -11.076,-18.774C-11.046,-18.703 -11.011,-18.623 -10.888,-18.566C-10.937,-18.559 -11.02,-18.553 -11.008,-18.483C-10.974,-18.34 -10.703,-18.212 -10.47,-18.149C-10.442,-18.077 -10.401,-18.05 -10.256,-18.017C-10.063,-17.964 -9.934,-17.892 -9.725,-17.86C-9.52,-17.767 -9.326,-17.769 -9.261,-17.856C-9.141,-17.768 -8.738,-17.629 -8.617,-17.497C-8.773,-17.508 -8.779,-17.382 -8.917,-17.415C-9.082,-17.481 -9.478,-17.687 -9.725,-17.757C-9.949,-17.82 -10.548,-17.737 -10.363,-17.59C-10.123,-17.447 -10.042,-17.59 -9.792,-17.34C-9.604,-17.156 -9.78,-17.063 -9.866,-17.095C-10.102,-17.149 -10.155,-17.313 -10.354,-17.367C-10.542,-17.415 -10.648,-17.074 -10.614,-16.911C-10.563,-16.662 -10.982,-16.841 -10.967,-16.624C-11.093,-16.643 -11.251,-16.669 -11.396,-16.702C-11.377,-16.726 -11.382,-16.74 -11.363,-16.763C-11.444,-16.798 -11.622,-16.848 -11.783,-16.876C-11.931,-16.909 -12.111,-16.832 -12.217,-16.843C-12.409,-16.817 -12.517,-16.923 -12.737,-16.898C-12.8,-16.883 -12.805,-16.84 -12.943,-16.871C-12.943,-16.871 -13.178,-16.997 -13.181,-17.012C-13.189,-17.034 -13.117,-17.038 -13.118,-17.079C-13.413,-17.147 -13.633,-17.017 -13.995,-17.082C-14.032,-17.087 -14.412,-17.457 -14.441,-17.489C-14.551,-17.504 -14.28,-17.241 -14.428,-17.264C-14.439,-17.29 -14.439,-17.317 -14.441,-17.346C-14.515,-17.356 -14.588,-17.428 -14.61,-17.501C-14.622,-17.641 -14.485,-17.677 -14.362,-17.725C-14.321,-17.738 -14.221,-17.733 -14.216,-17.771C-14.233,-17.783 -14.218,-17.81 -14.227,-17.829C-14.324,-17.833 -14.481,-17.87 -14.492,-17.948C-14.511,-18.023 -14.508,-18.045 -14.445,-18.121C-14.449,-18.151 -14.457,-18.175 -14.461,-18.206C-14.78,-18.137 -15.274,-18.2 -15.239,-17.887C-15.214,-17.701 -14.989,-17.631 -14.899,-17.413C-14.891,-17.414 -14.78,-17.252 -14.775,-17.214C-14.772,-17.152 -14.976,-17.119 -15.056,-17.129C-15.176,-17.144 -15.301,-17.18 -15.386,-17.149C-15.414,-17.149 -15.463,-17.106 -15.501,-17.129C-15.589,-17.119 -15.514,-17.128 -15.695,-17.154C-16.013,-17.201 -16.479,-16.932 -16.667,-16.822C-16.682,-16.815 -16.795,-16.772 -16.798,-16.735C-16.785,-16.627 -16.724,-16.507 -16.837,-16.445C-16.888,-16.41 -17.457,-16.315 -17.541,-16.308C-17.603,-16.306 -17.67,-16.302 -17.744,-16.307C-17.803,-16.073 -17.669,-15.991 -18.115,-16.026C-18.139,-15.953 -18.232,-15.895 -18.355,-15.901C-18.529,-15.929 -18.684,-15.976 -18.813,-16.063C-18.853,-16.054 -18.922,-16.066 -18.963,-16.074C-18.965,-16.05 -18.961,-16.02 -18.956,-15.996C-18.943,-15.969 -18.97,-15.819 -18.866,-15.795C-18.868,-15.773 -18.863,-15.747 -18.861,-15.727C-18.906,-15.705 -19.082,-15.687 -19.204,-15.702C-19.303,-15.701 -19.576,-15.777 -19.62,-15.828C-19.774,-15.816 -20.182,-15.777 -20.188,-15.686C-20.186,-15.673 -20.172,-15.658 -20.169,-15.645C-20.145,-15.502 -19.489,-15.373 -19.236,-15.309C-19.175,-15.297 -19.143,-15.245 -19.049,-15.227C-19.027,-15.078 -18.823,-14.674 -18.507,-14.653C-18.5,-14.58 -18.407,-14.592 -18.405,-14.493C-18.402,-14.457 -18.434,-14.384 -18.454,-14.344C-18.445,-14.344 -18.434,-14.353 -18.426,-14.358C-18.422,-14.303 -18.393,-14.11 -18.39,-14.073C-18.372,-13.874 -18.642,-13.907 -18.634,-13.691C-18.671,-13.694 -18.907,-13.66 -19.015,-13.662C-19.162,-13.679 -19.268,-13.747 -19.45,-13.73C-19.703,-13.734 -19.936,-13.76 -20.196,-13.768C-20.257,-13.779 -20.411,-13.812 -20.464,-13.845C-20.707,-13.849 -20.928,-13.864 -21.169,-13.876C-21.244,-13.858 -21.358,-13.92 -21.407,-13.928C-21.481,-13.923 -22.02,-13.719 -22.029,-13.665C-22.03,-13.583 -21.849,-13.422 -21.841,-13.253C-21.827,-12.981 -21.962,-12.694 -21.956,-12.422C-21.955,-12.358 -22.117,-12.328 -22.124,-12.174C-22.119,-12.101 -21.996,-12.01 -21.863,-12.012C-21.866,-11.762 -21.848,-11.572 -21.843,-11.335C-21.841,-11.301 -21.818,-11.209 -21.711,-11.217C-21.473,-11.2 -21.299,-11.301 -21.023,-11.295C-20.655,-11.262 -20.623,-10.769 -20.38,-10.742C-20.019,-10.755 -19.845,-11.001 -19.453,-10.992C-19.392,-10.991 -19.114,-11.037 -18.966,-10.999C-18.962,-10.999 -18.962,-11.013 -18.967,-11.013C-18.647,-10.916 -18.643,-11.251 -18.452,-11.341C-18.13,-11.473 -18.06,-11.759 -17.869,-11.965C-17.929,-11.989 -18.027,-12.042 -18.032,-12.115C-18.032,-12.355 -17.634,-12.755 -17.361,-12.787C-17.039,-12.828 -16.726,-12.872 -16.649,-13.071C-16.684,-13.133 -16.729,-13.242 -16.757,-13.308C-16.767,-13.472 -16.548,-13.547 -16.318,-13.53C-16.028,-13.497 -16.095,-13.393 -15.767,-13.369C-15.439,-13.342 -15.283,-13.497 -15.011,-13.571C-14.899,-13.596 -14.892,-13.732 -14.629,-13.702C-14.089,-13.644 -13.738,-13.336 -13.686,-12.956C-13.661,-12.892 -13.435,-12.818 -13.332,-12.734C-13.078,-12.529 -12.983,-12.438 -12.538,-12.307C-12.53,-12.253 -12.318,-12.178 -12.269,-12.171C-12.241,-12.122 -11.566,-11.529 -11.533,-11.515C-11.491,-11.44 -11.391,-11.356 -11.366,-11.208C-11.361,-11.099 -11.397,-10.935 -11.563,-10.952C-11.566,-10.916 -11.497,-10.879 -11.408,-10.861C-11.219,-10.85 -11.237,-11.065 -11.135,-11.148C-11.135,-11.148 -11.034,-11.24 -11.031,-11.285C-11.047,-11.425 -11.16,-11.367 -11.175,-11.504C-11.188,-11.595 -11.198,-11.754 -11.033,-11.742C-10.876,-11.715 -10.801,-11.581 -10.6,-11.532C-10.588,-11.751 -10.979,-11.95 -11.253,-12.098C-11.324,-12.133 -11.647,-12.233 -11.619,-12.347C-11.614,-12.372 -11.609,-12.399 -11.603,-12.424C-11.803,-12.438 -11.922,-12.419 -12.138,-12.515C-12.228,-12.57 -12.393,-12.835 -12.466,-12.981C-12.504,-13.063 -12.643,-13.258 -12.856,-13.337C-13.037,-13.392 -13.155,-13.473 -13.173,-13.624C-13.184,-13.677 -13.166,-13.741 -13.14,-13.795C-13.165,-13.799 -13.221,-13.846 -13.215,-13.864C-13.242,-13.96 -12.944,-13.932 -12.79,-13.982C-12.726,-13.917 -12.759,-13.717 -12.582,-13.693C-12.449,-13.661 -12.315,-13.654 -12.182,-13.637C-12.148,-13.402 -11.688,-12.939 -11.396,-12.888C-11.346,-12.859 -11.269,-12.877 -11.214,-12.861C-11.194,-12.73 -10.994,-12.67 -10.799,-12.586C-10.617,-12.474 -10.32,-12.236 -10.285,-12.097C-10.285,-12.018 -10.257,-11.924 -10.25,-11.836C-10.228,-11.626 -10.278,-11.613 -10.11,-11.462C-9.986,-11.351 -9.88,-11.247 -9.805,-11.098C-9.805,-11.08 -9.765,-10.984 -9.717,-10.974C-9.647,-10.972 -9.574,-10.955 -9.505,-10.944C-9.532,-10.892 -9.632,-10.749 -9.628,-10.654C-9.602,-10.424 -9.296,-10.101 -9.095,-10.064C-9.039,-10.069 -8.982,-10.045 -8.925,-10.039C-9.064,-10.134 -8.955,-10.272 -8.961,-10.342C-8.967,-10.435 -9.044,-10.658 -9.08,-10.714C-9.08,-10.738 -9.09,-10.771 -9.09,-10.795C-9.036,-10.74 -8.879,-10.49 -8.736,-10.436C-8.73,-10.436 -8.716,-10.434 -8.711,-10.433C-8.682,-10.513 -8.6,-10.594 -8.538,-10.619C-8.555,-10.646 -8.58,-10.69 -8.597,-10.718C-8.694,-10.729 -9.054,-11.04 -9.054,-11.067C-9.069,-11.091 -9.026,-11.125 -9.023,-11.18C-9.092,-11.257 -9.185,-11.358 -9.283,-11.438C-9.278,-11.483 -9.226,-11.529 -9.164,-11.527C-9.055,-11.507 -9.005,-11.37 -8.831,-11.325C-8.81,-11.399 -8.824,-11.465 -8.862,-11.544C-8.72,-11.557 -8.682,-11.627 -8.492,-11.605C-8.286,-11.551 -8.252,-11.461 -8.083,-11.419C-7.923,-11.402 -7.849,-11.363 -7.713,-11.393C-7.598,-11.406 -7.41,-11.365 -7.32,-11.376C-7.259,-11.367 -7.237,-11.351 -7.185,-11.384C-7.272,-11.489 -7.581,-11.672 -7.615,-11.873C-7.635,-12.005 -7.471,-12.162 -7.383,-12.223C-7.395,-12.301 -7.417,-12.385 -7.428,-12.466C-7.411,-12.531 -7.395,-12.444 -7.385,-12.581C-7.405,-12.67 -7.298,-12.688 -7.195,-12.684C-7.222,-12.724 -7.207,-12.785 -7.234,-12.825C-7.003,-12.837 -7.06,-13.16 -6.828,-13.103C-6.743,-13.091 -6.489,-12.871 -6.211,-12.769C-6.162,-12.76 -6.396,-12.705 -6.362,-12.666C-6.184,-12.455 -6.001,-12.244 -5.918,-12.217C-5.771,-12.179 -5.379,-12.241 -5.33,-12.295C-5.354,-12.301 -5.592,-12.41 -5.592,-12.411C-5.641,-12.42 -5.765,-12.481 -5.78,-12.592C-5.794,-12.663 -5.2,-12.678 -4.985,-12.684C-4.985,-12.684 -5.038,-12.594 -5.103,-12.594C-5.071,-12.543 -4.767,-12.234 -5.266,-12.267C-4.902,-11.671 -4.012,-11.342 -3.821,-10.632C-3.805,-10.632 -3.799,-10.642 -3.791,-10.627C-3.9,-10.607 -3.983,-10.503 -4.144,-10.559C-4.306,-10.607 -4.464,-10.648 -4.629,-10.71C-4.743,-10.741 -5.082,-10.9 -5.114,-11.023C-5.324,-11.075 -5.347,-11.205 -5.599,-11.287C-5.783,-11.327 -6.023,-11.388 -6.15,-11.349C-6.288,-11.295 -6.405,-11.23 -6.533,-11.26C-6.648,-11.28 -6.744,-11.306 -6.858,-11.333C-6.918,-11.342 -7.11,-11.422 -7.106,-11.34C-7.089,-11.278 -7.034,-11.283 -7,-11.206C-7.178,-11.168 -8.16,-11.514 -8.141,-11.211C-8.139,-11.156 -8.009,-11.149 -7.938,-11.125C-7.954,-11.076 -7.935,-11.069 -7.921,-11.007C-7.904,-10.806 -8.016,-10.86 -8.123,-10.781C-7.935,-10.677 -7.81,-10.562 -7.686,-10.373C-7.769,-10.268 -7.424,-10.015 -7.349,-9.927C-7.359,-9.903 -7.39,-9.87 -7.428,-9.865C-7.389,-9.843 -7.349,-9.852 -7.304,-9.844C-7.118,-9.914 -6.955,-9.569 -6.744,-9.519C-6.547,-9.49 -6.641,-9.767 -6.41,-9.742C-6.185,-9.688 -5.938,-9.322 -5.718,-9.267C-5.414,-9.21 -5.401,-9.359 -5.27,-9.472C-5.226,-9.421 -5.164,-9.352 -5.063,-9.33C-4.968,-9.303 -5,-9.368 -4.901,-9.4C-4.885,-9.364 -4.897,-9.312 -4.881,-9.277C-4.903,-9.252 -4.944,-9.237 -4.926,-9.169C-4.916,-9.015 -4.84,-8.84 -4.8,-8.625C-4.762,-8.345 -4.93,-8.314 -4.963,-8.071C-4.98,-7.826 -5.01,-7.7 -5.034,-7.421C-5.057,-7.379 -5.117,-7.385 -5.097,-7.292C-5.086,-7.263 -5.072,-7.226 -5.058,-7.189C-5.061,-7.197 -5.065,-7.205 -5.068,-7.211C-5.194,-7.196 -5.216,-7.207 -5.368,-7.236C-5.607,-7.274 -5.823,-7.428 -6.027,-7.463C-6.374,-7.512 -6.173,-7.359 -6.518,-7.405C-6.924,-7.471 -7.442,-7.731 -7.836,-7.94C-8.044,-8.053 -8.286,-7.975 -8.426,-8.148C-8.477,-8.216 -8.609,-8.293 -8.64,-8.483C-8.729,-8.498 -8.823,-8.503 -8.911,-8.517C-8.925,-8.518 -8.944,-8.534 -8.95,-8.548C-9.327,-8.463 -9.625,-8.493 -9.592,-8.049C-9.585,-7.972 -9.574,-7.864 -9.569,-7.771C-9.573,-7.712 -9.685,-7.577 -9.81,-7.587C-10.773,-7.699 -11.4,-8.654 -12.332,-8.754C-12.463,-8.76 -12.589,-8.775 -12.727,-8.787C-12.999,-8.812 -13.38,-9.148 -13.416,-9.504C-13.44,-9.713 -13.271,-9.804 -13.271,-10.021C-13.28,-10.127 -13.47,-10.22 -13.481,-10.344C-13.494,-10.531 -13.308,-10.468 -13.298,-10.684C-13.371,-10.666 -13.43,-10.615 -13.504,-10.621C-13.75,-10.634 -13.665,-10.893 -13.954,-10.908C-14.23,-10.942 -14.217,-10.733 -14.517,-10.749C-14.676,-10.763 -14.764,-10.866 -14.964,-10.881C-15.184,-10.899 -15.402,-10.708 -15.57,-10.719C-15.669,-10.731 -15.891,-10.877 -16.105,-10.896C-16.794,-10.943 -17.741,-10.694 -18.353,-10.448C-18.536,-10.361 -18.85,-10.24 -19.189,-10.249C-19.735,-10.269 -19.92,-10.358 -20.335,-10.642C-20.49,-10.522 -20.531,-10.171 -20.661,-10.022C-20.73,-9.982 -20.833,-9.927 -20.927,-9.88C-21.321,-9.434 -21.749,-9.402 -22.179,-8.915C-22.367,-8.686 -22.399,-8.21 -22.35,-7.995C-22.532,-7.77 -22.805,-7.416 -23.037,-7.279C-23.336,-7.133 -23.887,-6.964 -24.133,-6.661C-24.529,-6.158 -24.819,-5.593 -25.045,-4.959C-25.133,-4.72 -25.508,-4.514 -25.515,-4.204C-25.511,-3.539 -25.148,-3.081 -25.14,-2.361C-25.144,-1.958 -25.436,-1.199 -25.789,-1.012C-25.678,-0.771 -25.38,-0.485 -25.376,-0.251C-25.374,-0.146 -25.299,0.018 -25.296,0.264C-25.302,0.254 -25.333,0.265 -25.345,0.264C-25.283,0.331 -25.213,0.389 -25.134,0.487C-25.125,0.534 -24.285,1.304 -24.167,1.388C-23.756,1.717 -23.666,2.087 -23.364,2.558C-23.002,3.079 -22.308,2.969 -21.66,3.94C-21.624,3.986 -21.367,4.07 -21.186,4.064C-20.554,4.06 -20.136,3.751 -19.494,3.733C-19.155,3.736 -18.757,3.96 -18.519,3.96C-18.256,3.96 -18.198,3.754 -17.95,3.671C-17.338,3.465 -16.449,3.06 -15.666,3.04C-15.029,3.047 -15.573,4.013 -15.098,4.028C-14.955,4.026 -14.442,3.941 -14.164,3.932C-13.652,3.925 -13.407,4.215 -13.235,4.553C-13.393,4.683 -13.391,5.131 -13.402,5.32C-13.402,5.367 -13.453,5.419 -13.409,5.548C-13.486,5.608 -13.762,5.998 -13.768,6.166C-13.773,6.884 -13.026,7.548 -12.665,8.024C-12.503,8.26 -12.556,8.599 -12.469,8.889C-12.353,9.238 -12.245,9.452 -12.19,10.061C-12.172,10.38 -12.038,10.498 -12.067,10.856C-12.134,11.603 -12.918,12.042 -13.022,13.011C-13.103,13.913 -12.751,14.336 -12.433,14.91C-12.341,15.074 -12.197,15.115 -12.217,15.296C-12.243,15.398 -12.249,15.52 -12.262,15.637C-12.409,16.741 -12.141,17.097 -11.778,17.418C-11.688,17.498 -11.565,18.004 -11.397,18.337C-11.349,18.456 -11.382,18.587 -11.503,18.697C-11.404,18.788 -11.463,18.939 -11.512,19.157C-11.491,19.139 -11.457,19.115 -11.379,19.078C-11.335,19.181 -11.243,19.247 -11.047,19.203C-10.592,19.083 -10.406,18.735 -9.922,18.607C-9.793,18.582 -9.761,18.653 -9.635,18.63C-9.529,18.6 -9.435,18.519 -9.287,18.468C-9.212,18.264 -8.866,18.274 -8.661,18.142C-8.162,17.806 -7.951,17.453 -7.615,17.032C-7.384,16.776 -7.268,16.723 -6.982,16.425C-6.845,16.242 -6.589,15.946 -6.513,15.633C-6.493,15.529 -6.534,15.468 -6.604,15.444C-6.429,15.123 -6.581,15.218 -6.193,14.931C-6.063,14.863 -5.9,14.81 -5.778,14.665C-5.655,14.531 -5.536,14.047 -5.481,13.813C-5.4,13.379 -5.648,13.533 -5.581,13.205C-5.547,13.038 -5.381,12.819 -5.232,12.764C-4.967,11.939 -3.899,11.801 -3.707,10.847C-3.688,10.756 -3.672,10.704 -3.734,10.624C-3.684,10.357 -3.658,10.102 -3.611,9.837C-3.595,9.746 -3.565,9.641 -3.543,9.543C-3.534,9.518 -3.458,9.415 -3.458,9.344C-3.415,9.099 -3.714,8.884 -3.67,8.443C-3.626,8.05 -3.748,7.753 -3.705,7.344C-3.677,6.969 -3.433,6.855 -3.341,6.522C-3.204,6.008 -2.976,6.037 -2.757,5.724C-2.683,5.605 -2.618,5.113 -2.533,5.004C-2.295,4.745 -2.092,4.505 -1.877,4.217C-1.578,3.814 -1.494,3.474 -1.266,2.949C-1.077,2.505 -0.775,1.465 -0.774,0.747C-0.775,0.677 -0.792,0.642 -0.817,0.56C-1.026,0.686 -1.212,0.883 -1.485,0.964C-1.668,0.992 -1.665,0.907 -1.772,0.963C-1.878,1.014 -1.878,1.182 -1.997,1.182C-2.121,1.18 -2.229,0.774 -2.335,0.634C-2.249,0.467 -2.338,0.444 -2.334,0.222C-2.618,0.196 -2.686,-0.322 -2.823,-0.498C-2.977,-0.681 -3.076,-0.693 -3.225,-0.915C-3.403,-1.171 -3.302,-1.487 -3.483,-1.838C-3.641,-2.117 -3.848,-2.436 -3.97,-2.812C-3.974,-3.061 -3.991,-3.285 -4.013,-3.523C-4.153,-3.698 -4.441,-4.004 -4.425,-4.284C-4.776,-5.11 -5.152,-5.89 -5.538,-6.71C-5.545,-6.776 -5.549,-6.87 -5.562,-6.935C-5.375,-6.67 -5.135,-6.077 -4.914,-5.994C-4.9,-6.126 -4.824,-6.424 -4.801,-6.616C-4.802,-6.452 -4.811,-6.298 -4.809,-6.212C-4.797,-6.179 -4.641,-5.935 -4.61,-5.872C-4.468,-5.641 -4.368,-5.492 -4.238,-5.235C-4.201,-5.159 -4.123,-5.031 -4.077,-4.901C-4.06,-4.829 -4.048,-4.632 -3.991,-4.538C-3.963,-4.496 -3.837,-4.506 -3.801,-4.448C-3.773,-4.405 -3.729,-4.323 -3.668,-4.262C-3.613,-4.014 -3.484,-3.932 -3.447,-3.622C-3.421,-3.109 -3.332,-2.844 -3.011,-2.707C-2.996,-2.385 -2.789,-1.954 -2.679,-1.795C-2.571,-1.63 -2.402,-1.48 -2.421,-1.19C-2.429,-1.082 -2.496,-0.826 -2.399,-0.809C-2.398,-0.549 -2.396,-0.28 -2.318,-0.074C-2.258,0.072 -2.331,0.051 -2.305,0.074C-2.278,0.098 -2.092,0.244 -2.058,0.26C-2.037,0.239 -2.032,0.234 -2.011,0.213C-1.851,0.207 -1.833,0.007 -1.709,-0.146C-1.557,-0.129 -1.537,-0.112 -1.442,-0.094C-1.358,-0.165 -1.102,-0.524 -1.035,-0.563C-0.862,-0.626 -0.759,-0.706 -0.624,-0.833C-0.65,-0.855 -0.649,-0.909 -0.652,-0.945C-0.647,-1.21 -0.362,-1.213 -0.225,-1.26C-0.235,-1.402 -0.219,-1.597 -0.109,-1.583C0.072,-1.558 -0.183,-1.905 0,-1.898M-3.726,-10.76C-3.716,-10.76 -3.72,-10.764 -3.711,-10.761C-3.701,-10.762 -3.716,-10.76 -3.726,-10.76" style="fill-rule:nonzero;"/>
            </g>
            <g transform="matrix(1,0,0,1,651.57,22.0188)">
                <path d="M0,0.126C-0.075,0.089 -0.149,0.053 -0.224,0.016C-0.253,0.016 -0.274,0.003 -0.304,0C-0.238,0.032 -0.14,0.079 0,0.126" style="fill-rule:nonzero;"/>
            </g>
            <g transform="matrix(1,0,0,1,652.784,22.3442)">
                <path d="M0,0.461C0.012,0.46 0.021,0.458 0.029,0.456C-0.199,0.328 -0.428,0.202 -0.661,0.081C-0.746,0.055 -0.857,0.021 -0.938,0C-0.875,0.112 -0.291,0.323 0,0.461" style="fill-rule:nonzero;"/>
            </g>
            <g transform="matrix(1,0,0,1,651.339,21.8682)">
                <path d="M0,0.163C-0.115,0.108 -0.231,0.053 -0.347,0C-0.355,0.078 -0.187,0.097 0,0.163" style="fill-rule:nonzero;"/>
            </g>
            <g transform="matrix(1,0,0,1,652.02,22.2056)">
                <path d="M0,0.165C-0.107,0.109 -0.216,0.056 -0.324,0.002C-0.344,0 -0.356,0.004 -0.352,0.017C-0.315,0.132 -0.138,0.145 0,0.165" style="fill-rule:nonzero;"/>
            </g>
            <g transform="matrix(1,0,0,1,651.078,21.7592)">
                <path d="M0,0.254C-0.117,0.178 -0.253,0.117 -0.428,0.024C-0.571,0 -0.232,0.18 0,0.254" style="fill-rule:nonzero;"/>
            </g>
            <g transform="matrix(1,0,0,1,650.671,21.7916)">
                <path d="M0,-0.006C-0.004,-0.006 -0.015,-0.006 -0.02,-0.009C-0.012,-0.005 -0.003,0 0.004,0.003C0.01,0.003 0.006,-0.006 0,-0.006" style="fill-rule:nonzero;"/>
            </g>
            <g transform="matrix(1,0,0,1,650.638,21.7829)">
                <path d="M0,-0.006C0.004,-0.006 0.016,0 0.011,0L0.013,0C0.017,0 0.004,-0.006 0,-0.006" style="fill-rule:nonzero;"/>
            </g>
            <g transform="matrix(1,0,0,1,644.087,27.0787)">
                <path d="M0,1.319C0.074,1.309 0.229,1.309 0.296,1.295C0.428,1.253 0.59,1.109 0.847,1.117C1.008,1.126 1.155,1.151 1.249,1.092C1.368,1.033 1.256,0.908 1.248,0.837C1.243,0.736 1.233,0.632 1.227,0.529C1.225,0.458 1.491,0.483 1.495,0.412C1.474,0.254 1.307,0.044 0.948,0.017C0.877,0.012 0.759,0.01 0.688,0.002C0.533,0 0.234,0.084 0.234,0.147C0.24,0.191 0.277,0.22 0.334,0.267C0.254,0.313 -0.018,0.34 -0.11,0.345C-0.147,0.336 -0.286,0.32 -0.277,0.436C-0.284,0.525 -0.125,0.578 0.029,0.64C-0.021,0.852 -0.41,0.86 -0.403,1.089C-0.403,1.196 -0.19,1.297 0,1.319" style="fill-rule:nonzero;"/>
            </g>
            <g transform="matrix(1,0,0,1,644.957,26.0484)">
                <path d="M0,0.152C0.16,0.174 0.282,0.081 0.272,-0.022C0.172,-0.019 -0.091,-0.007 -0.098,0.046C-0.094,0.081 -0.038,0.152 0,0.152" style="fill-rule:nonzero;"/>
            </g>
            <g transform="matrix(1,0,0,1,645.46,28.5056)">
                <path d="M0,-2.029C-0.007,-2.007 -0.003,-1.983 0.005,-1.961C0.002,-1.953 -0.091,-1.902 -0.092,-1.857C-0.089,-1.821 0.045,-1.789 0.14,-1.773C0.133,-1.747 0.147,-1.723 0.147,-1.695C0.125,-1.679 0.112,-1.655 0.09,-1.639C0.094,-1.591 0.098,-1.548 0.101,-1.5C0.134,-1.504 0.189,-1.491 0.223,-1.492C0.19,-1.521 0.147,-1.553 0.212,-1.622C0.252,-1.61 0.346,-1.564 0.474,-1.561C0.437,-1.489 0.483,-1.474 0.487,-1.396C0.49,-1.324 0.344,-1.293 0.35,-1.221C0.353,-1.15 0.458,-1.143 0.599,-1.134C0.7,-1.132 0.79,-1.156 0.945,-1.154C0.98,-1.141 1.043,-1.138 1.081,-1.135C1.053,-1.101 0.982,-1.091 0.986,-1.019C0.993,-0.93 1.201,-0.89 1.358,-0.894C1.357,-0.85 1.365,-0.804 1.37,-0.76C1.296,-0.674 0.978,-0.63 0.698,-0.638C0.706,-0.54 0.832,-0.499 0.84,-0.366C0.843,-0.228 0.438,-0.25 0.43,-0.109C0.435,-0.091 0.487,-0.066 0.51,-0.057C0.573,-0.065 0.568,-0.101 0.661,-0.094C0.84,-0.086 0.896,0.03 1.101,0.046C1.189,0.047 1.313,0.028 1.37,-0.027C1.374,-0.005 1.393,0.02 1.406,0.04C1.403,0.178 1.114,0.107 0.892,0.125C0.854,0.13 0.405,0.409 0.373,0.439C0.378,0.456 0.373,0.479 0.378,0.496C0.405,0.506 0.457,0.501 0.486,0.502C0.54,0.472 0.593,0.427 0.698,0.44C0.757,0.433 0.858,0.441 0.915,0.453C0.918,0.382 0.991,0.299 1.151,0.309C1.24,0.312 1.322,0.377 1.433,0.384C1.67,0.405 2.064,0.354 2.221,0.36C2.429,0.377 2.622,0.389 2.825,0.41C3.013,0.424 3.097,0.388 3.232,0.309C3.229,0.288 3.222,0.265 3.225,0.244C3.15,0.25 3.075,0.217 2.922,0.18C3.029,0.074 3.371,0.031 3.362,-0.14C3.358,-0.229 3.206,-0.322 3.032,-0.341C2.931,-0.343 2.937,-0.36 2.842,-0.323C2.864,-0.335 2.892,-0.341 2.913,-0.353C2.861,-0.344 2.847,-0.31 2.74,-0.306C2.722,-0.315 2.738,-0.349 2.734,-0.369C2.773,-0.369 2.807,-0.399 2.801,-0.425C2.796,-0.496 2.635,-0.558 2.619,-0.628C2.589,-0.861 2.209,-0.942 1.951,-1.099C1.758,-1.22 1.793,-1.423 1.496,-1.5C1.4,-1.536 1.305,-1.495 1.15,-1.537C1.174,-1.567 1.213,-1.595 1.265,-1.596C1.246,-1.779 1.691,-1.838 1.615,-2.08C1.323,-2.112 1.033,-2.132 0.737,-2.153C0.72,-2.174 0.706,-2.205 0.685,-2.223C0.725,-2.344 1.04,-2.304 1.038,-2.41C1.031,-2.425 0.931,-2.488 0.882,-2.496C0.741,-2.504 0.596,-2.51 0.45,-2.529C0.375,-2.535 0.223,-2.484 0.22,-2.44C0.223,-2.396 0.175,-2.374 0.172,-2.302C0.084,-2.313 -0.04,-2.287 -0.03,-2.216C-0.034,-2.199 0.023,-2.168 0.049,-2.16C0.044,-2.143 0.018,-2.107 -0.007,-2.114C-0.031,-2.106 -0.117,-2.143 -0.119,-2.197C-0.186,-2.201 -0.293,-2.214 -0.361,-2.212C-0.356,-2.097 -0.238,-2.073 0,-2.029" style="fill-rule:nonzero;"/>
            </g>
            <g transform="matrix(1,0,0,1,646.053,27.6041)">
                <path d="M0,-0.11C-0.076,-0.086 -0.1,-0.055 -0.098,-0.01C-0.052,-0.007 0.024,-0.004 0.07,0.002C0.07,-0.034 0.073,-0.068 0.076,-0.104C0.056,-0.111 0.021,-0.112 0,-0.11" style="fill-rule:nonzero;"/>
            </g>
            <g transform="matrix(1,0,0,1,642.162,23.8417)">
                <path d="M0,0.1C0.01,0.101 0.022,0.094 0.03,0.087C0.016,-0.098 -0.519,-0.068 -0.54,-0.267C-0.537,-0.292 -0.493,-0.318 -0.451,-0.325C-0.583,-0.335 -0.672,-0.303 -0.81,-0.299C-0.956,-0.309 -1.072,-0.292 -1.082,-0.391C-1.137,-0.377 -1.138,-0.376 -1.247,-0.393C-1.284,-0.372 -1.315,-0.36 -1.305,-0.295C-1.45,-0.353 -1.61,-0.277 -1.816,-0.279C-1.947,-0.264 -2.07,-0.301 -2.297,-0.3C-2.297,-0.275 -2.315,-0.254 -2.297,-0.233C-2.349,-0.248 -2.38,-0.256 -2.508,-0.279C-2.61,-0.261 -2.752,-0.252 -2.87,-0.236C-2.946,-0.233 -3.006,-0.273 -3.064,-0.294C-3.109,-0.273 -3.101,-0.26 -3.066,-0.207C-3.126,-0.188 -3.229,-0.156 -3.337,-0.162C-3.426,-0.158 -3.566,-0.233 -3.559,-0.292C-3.563,-0.343 -3.619,-0.347 -3.646,-0.39C-3.68,-0.387 -3.732,-0.389 -3.766,-0.387C-3.867,-0.394 -3.919,-0.319 -4.038,-0.306C-4.036,-0.285 -4.042,-0.275 -4.04,-0.253C-4.117,-0.277 -4.202,-0.283 -4.339,-0.257C-4.303,-0.17 -3.758,-0.12 -3.579,-0.131C-3.577,-0.105 -3.56,-0.087 -3.52,-0.077C-3.69,-0.049 -4.083,-0.007 -4.305,0.004C-4.154,0.06 -3.902,-0.004 -3.658,0.014C-3.701,0.098 -3.736,0.136 -3.739,0.222C-3.778,0.225 -3.838,0.246 -3.877,0.26C-3.547,0.252 -3.432,0.347 -3.213,0.374C-2.798,0.426 -2.409,0.485 -1.841,0.494C-1.319,0.482 -1.039,0.381 -0.672,0.332C-0.472,0.309 -0.115,0.196 0,0.1" style="fill-rule:nonzero;"/>
            </g>
            <g transform="matrix(1,0,0,1,617.294,41.4583)">
                <path d="M0,1.153C0.124,1.157 0.289,1.13 0.355,0.964C0.287,0.906 0.261,0.763 0.16,0.721C0.1,0.728 0.085,0.732 0.025,0.721C0.01,0.701 0.027,0.653 0.031,0.63C-0.171,0.655 -0.383,0.528 -0.486,0.366C-0.497,0.335 -0.534,0.232 -0.617,0.23C-0.896,0.272 -1.027,-0.021 -1.364,0.023C-1.699,0.076 -1.86,0.299 -1.991,0.658C-1.986,0.623 -1.96,0.668 -1.93,0.648C-1.839,0.528 -1.647,0.323 -1.51,0.291C-1.452,0.302 -1.449,0.26 -1.409,0.312C-1.434,0.356 -1.465,0.388 -1.405,0.448C-1.295,0.419 -1.259,0.426 -1.186,0.417C-1.075,0.405 -1.035,0.584 -0.924,0.571C-0.836,0.537 -0.838,0.497 -0.756,0.563C-0.713,0.594 -0.747,0.676 -0.672,0.668C-0.666,0.85 -0.536,0.83 -0.404,0.906C-0.414,0.965 -0.437,1.024 -0.496,1.032C-0.499,1.055 -0.497,1.087 -0.501,1.11C-0.338,1.104 -0.196,1.174 0,1.153" style="fill-rule:nonzero;"/>
            </g>
            <g transform="matrix(1,0,0,1,615.578,42.0103)">
                <path d="M0,0.186C-0.003,0.209 0.089,0.171 0.101,0.172C0.11,0.112 0.115,0.045 0.115,-0.014C0.103,-0.016 0.101,-0.012 0.094,-0.023C0.092,-0.014 0.087,-0.021 0.079,-0.021C0.075,0.006 0.077,0.04 0.072,0.066C0.108,0.065 0.013,0.108 0,0.186" style="fill-rule:nonzero;"/>
            </g>
            <g transform="matrix(1,0,0,1,616.666,43.3181)">
                <path d="M0,-0.094C0.006,-0.004 0.031,0.091 0.127,0.089C0.266,0.058 0.304,0.028 0.417,-0.01C0.405,-0.057 0.415,-0.098 0.343,-0.122C0.35,-0.114 0.36,-0.108 0.359,-0.098C0.291,-0.128 0.197,-0.185 0.088,-0.18C0.049,-0.152 0.006,-0.14 0,-0.094" style="fill-rule:nonzero;"/>
            </g>
            <g transform="matrix(1,0,0,1,619.713,43.0435)">
                <path d="M0,-0.052C-0.003,0.089 0.125,0.091 0.269,0.086C0.34,0.079 0.4,0.077 0.45,-0.007C0.411,-0.074 0.16,-0.143 0.123,-0.142C0.088,-0.135 0.001,-0.11 0,-0.052" style="fill-rule:nonzero;"/>
            </g>
            <g transform="matrix(1,0,0,1,617.738,42.5074)">
                <path d="M0,0.767C0.004,0.736 0.01,0.691 0.014,0.659C0.068,0.701 0.043,0.654 0.127,0.652C0.253,0.639 0.463,0.59 0.561,0.663C0.606,0.715 0.587,0.839 0.673,0.831C0.8,0.818 0.779,0.585 0.913,0.574C0.972,0.583 0.941,0.647 1.012,0.635C1.096,0.633 1.132,0.583 1.202,0.515C1.328,0.505 1.456,0.5 1.589,0.492C1.52,0.352 1.421,0.314 1.318,0.208C1.335,0.228 1.351,0.241 1.368,0.26C1.19,0.142 1.143,-0.072 0.812,-0.052C0.703,-0.042 0.636,0.015 0.513,0.024C0.406,0.04 0.382,-0.053 0.285,-0.05C0.25,-0.056 0.21,0.015 0.204,0.049C0.206,0.118 0.25,0.193 0.321,0.185C0.322,0.277 0.315,0.381 0.375,0.461C0.255,0.549 0.164,0.497 -0.053,0.506C-0.067,0.515 -0.08,0.555 -0.103,0.563C-0.112,0.631 -0.07,0.744 0,0.767" style="fill-rule:nonzero;"/>
            </g>
            <g transform="matrix(1,0,0,1,621.501,46.3007)">
                <path d="M0,0.275C0.001,0.312 0.072,0.276 0.108,0.275C0.178,0.274 0.233,0.125 0.251,0.072C0.251,0.043 0.252,-0.008 0.252,-0.037L0.143,-0.037C0.072,-0.036 0.011,0.115 0,0.275" style="fill-rule:nonzero;"/>
            </g>
            <g transform="matrix(1,0,0,1,625.589,51.6095)">
                <path d="M0,-0.069C0.016,0.078 0.361,0.373 0.579,0.387C0.748,0.381 0.946,0.03 0.935,-0.109C0.937,-0.134 0.88,-0.255 0.833,-0.258C0.774,-0.259 0.645,-0.088 0.609,-0.298C0.515,-0.3 0.397,-0.39 0.315,-0.453C0.299,-0.456 0.275,-0.453 0.259,-0.456C0.093,-0.451 -0.005,-0.311 0,-0.069" style="fill-rule:nonzero;"/>
            </g>
            <g transform="matrix(1,0,0,1,625.944,68.86)">
                <path d="M0,-0.026C-0.071,-0.044 -0.086,-0.05 -0.186,-0.088C-0.265,-0.12 -0.266,-0.078 -0.347,-0.099C-0.387,-0.125 -0.335,-0.04 -0.417,-0.066C-0.41,-0.028 -0.391,-0.035 -0.384,0.003C-0.368,-0.023 -0.334,0.014 -0.314,0.027C-0.231,0.044 -0.224,0.086 -0.203,0.009C-0.112,0.041 0.046,0.099 0.024,0.027C0,0.011 0.015,-0.001 0,-0.026" style="fill-rule:nonzero;"/>
            </g>
            <g transform="matrix(1,0,0,1,625.529,68.6207)">
                <path d="M0,0.049C-0.129,0.026 -0.206,-0.002 -0.354,-0.076C-0.349,-0.048 -0.296,-0.021 -0.244,0.017C-0.231,0.095 -0.288,-0.012 -0.337,0.062C-0.315,0.079 -0.294,0.1 -0.271,0.115C-0.131,0.125 -0.096,0.093 0.024,0.101C0.001,0.085 0.013,0.074 0,0.049" style="fill-rule:nonzero;"/>
            </g>
            <g transform="matrix(1,0,0,1,620.703,65.1119)">
                <path d="M0,-0.21C-0.025,-0.223 -0.031,-0.202 -0.029,-0.173C0.03,-0.11 0.091,-0.049 0.15,0.013C0.149,0.01 0.147,0.008 0.146,0.005C0.168,-0.016 0.168,-0.001 0.146,-0.054C0.114,-0.122 0.082,-0.173 0,-0.21" style="fill-rule:nonzero;"/>
            </g>
            <g transform="matrix(1,0,0,1,614.19,28.687)">
                <path d="M0,10.978C0.125,10.934 -0.01,11.082 0.113,11.03C0.174,10.993 0.136,10.954 0.198,10.915C0.43,10.848 0.351,11.205 0.541,10.998C0.447,10.879 0.526,10.832 0.569,10.697C0.562,10.693 0.547,10.685 0.506,10.675C0.606,10.573 0.73,10.551 0.823,10.48C0.83,10.513 0.817,10.547 0.852,10.557C0.935,10.509 0.934,10.444 1.015,10.418C1.176,10.375 1.199,10.605 1.317,10.581C1.42,10.548 1.38,10.418 1.485,10.391C1.785,10.32 1.612,11.024 1.687,11.395C1.715,11.577 1.793,11.611 1.862,11.79C1.902,11.908 1.87,12.082 1.984,12.064C2.116,12.043 2.179,11.805 2.205,11.55C2.221,11.331 2.173,11.239 2.163,11.087C2.168,11.068 2.165,11.044 2.17,11.027C2.214,10.641 2.018,10.574 2.066,10.186C2.181,9.316 2.564,9.186 3.007,8.778C2.994,8.774 2.993,8.773 2.987,8.762C3.051,8.686 3.045,8.653 3.151,8.575C3.244,8.538 3.276,8.433 3.385,8.382C3.442,8.346 3.475,8.278 3.506,8.228C3.457,8.207 3.458,8.207 3.417,8.171C3.428,8.144 3.421,8.105 3.433,8.078C3.538,8.056 3.54,8.064 3.584,7.927C3.523,7.929 3.501,7.936 3.483,7.855C3.539,7.834 3.606,7.776 3.62,7.685C3.622,7.647 3.633,7.606 3.639,7.569C3.612,7.578 3.607,7.584 3.578,7.584C3.523,7.503 3.595,7.528 3.608,7.411C3.637,7.299 3.622,7.112 3.636,7.022C3.636,7.022 3.646,6.928 3.672,6.872C3.662,6.986 3.71,7.134 3.698,7.223C3.681,7.26 3.682,7.309 3.676,7.349C3.668,7.37 3.676,7.417 3.699,7.41C3.732,7.395 3.97,6.951 3.981,6.884C4,6.797 3.951,6.78 3.941,6.689C3.964,6.673 3.984,6.645 3.996,6.62C4.007,6.65 4.011,6.715 4.041,6.694C4.121,6.667 4.341,6.235 4.381,6.137C4.381,6.137 4.323,6.08 4.326,6.024C4.341,5.995 4.363,5.951 4.395,5.93C4.43,5.921 4.438,5.928 4.473,5.919C4.597,5.874 4.688,5.86 4.832,5.768C4.745,5.719 4.684,5.801 4.602,5.83C4.563,5.84 4.551,5.853 4.511,5.855C4.734,5.663 5.012,5.642 5.249,5.422C5.294,5.469 5.443,5.373 5.576,5.307C5.569,5.282 5.578,5.249 5.591,5.226C5.591,5.227 5.492,5.328 5.468,5.333C5.397,5.347 5.4,5.208 5.41,5.153C5.372,5.16 5.385,5.095 5.39,5.062C5.483,4.624 5.807,4.655 6.009,4.433C6.122,4.354 6.134,4.328 6.256,4.295C6.389,4.252 6.527,4.163 6.621,4.023C6.613,3.992 6.599,3.986 6.591,3.955C6.602,3.955 6.6,3.93 6.591,3.924C6.597,3.914 6.592,3.899 6.598,3.89C6.62,3.905 6.665,3.869 6.702,3.865C6.771,3.842 7.011,3.82 7.127,3.741C7.221,3.637 7.256,3.51 7.427,3.457C7.392,3.626 7.377,3.632 7.558,3.588C7.298,3.677 6.9,3.933 6.839,4.187C6.833,4.287 6.928,4.44 7,4.426C7.094,4.402 7.33,4.06 7.574,3.937C7.622,3.898 8.443,3.457 8.47,3.361C8.499,3.231 8.2,3.274 8.132,3.301C7.808,3.354 7.415,3.19 7.428,2.922C7.432,2.936 7.442,2.937 7.463,2.893C7.453,2.894 7.44,2.895 7.427,2.896L7.424,2.896C7.363,2.9 7.28,2.909 7.206,2.926C7.306,2.827 7.681,2.682 7.728,2.456C7.774,2.249 7.433,2.367 7.215,2.436C6.745,2.55 6.482,2.937 6.186,3.073C6.375,2.744 6.55,2.787 6.839,2.489C7.009,2.291 6.922,2.24 7.167,2.103C7.585,1.863 7.784,1.872 8.213,1.776C8.758,1.635 9.164,1.755 9.605,1.267C9.828,1.042 10.712,0.863 10.78,0.595C10.829,0.402 10.735,0.353 10.655,0.246C10.564,0.28 10.703,0.156 10.585,0.146C10.574,0.114 10.599,0.084 10.605,0.05C10.313,0.221 9.732,0.472 9.451,0.54C9.416,0.548 9.361,0.549 9.346,0.534C9.591,0.388 10.232,0.182 10.349,0.019C10.368,-0.022 10.271,-0.004 10.269,-0.048C9.985,0.045 9.436,0.099 9.493,-0.167C9.487,-0.173 9.492,-0.184 9.498,-0.189C9.254,-0.127 9.139,-0.197 9.019,-0.23C9.075,-0.265 9.186,-0.314 9.217,-0.41C9.242,-0.491 9.161,-0.507 9.198,-0.595C9.088,-0.576 8.818,-0.627 8.934,-0.797C9.086,-1.001 8.663,-0.889 8.69,-1.072C8.664,-1.046 8.605,-1.088 8.547,-1.104C8.468,-1.051 8.255,-0.918 8.255,-0.834C8.244,-0.697 8.067,-0.608 7.862,-0.463C7.733,-0.379 7.583,-0.213 7.488,-0.179C7.322,-0.105 7.279,-0.293 7.165,-0.262C7.008,-0.199 7.206,-0.561 7.235,-0.694C7.262,-0.86 6.75,-0.524 6.834,-0.769C6.602,-0.676 6.69,-0.809 6.451,-0.707C6.392,-0.641 6.352,-0.657 6.273,-0.618C6.173,-0.572 6.1,-0.549 6.035,-0.531C5.801,-0.274 5.573,-0.011 5.35,0.255C5.369,0.276 5.384,0.298 5.373,0.328C5.325,0.5 5.088,0.669 4.981,0.749C5.066,0.972 5.206,0.759 5.25,0.838C5.319,0.994 5.156,1.117 5.085,1.331C5.037,1.448 4.468,1.99 4.315,2.094C4.531,2.098 4.298,2.526 4.362,2.602C4.323,2.661 4.199,2.842 4.158,2.927C4.027,2.989 4.039,3.082 3.919,3.033C3.782,2.984 3.626,2.856 3.69,2.657C3.738,2.517 3.784,2.399 3.768,2.336C3.328,2.977 2.914,3.637 2.53,4.316C2.588,4.349 2.651,4.435 2.652,4.468C2.646,4.611 2.549,4.606 2.619,4.71C2.695,4.834 2.906,4.692 3.041,4.768C3.132,4.721 3.141,4.751 3.221,4.687C3.362,4.769 3.37,4.765 3.332,4.918C3.297,4.981 3.293,5.029 3.229,5.062C3.093,5.1 3.116,5.031 3.073,4.985C3.001,5.16 2.828,5.631 2.73,5.675C2.629,5.573 2.685,5.554 2.711,5.421C2.62,5.502 2.642,5.521 2.562,5.547C2.609,5.413 2.688,5.293 2.727,5.166C2.741,5.055 2.605,4.992 2.518,5.031C2.407,5.094 2.459,5.247 2.23,5.389C2.118,5.456 2.083,5.705 2.054,5.822C2.024,5.928 2.008,6.018 1.974,6.12C1.938,6.24 1.825,6.536 1.753,6.583C1.633,6.629 1.64,6.568 1.672,6.464C1.74,6.221 1.917,5.736 2.065,5.477C1.963,5.537 1.966,5.582 1.894,5.68C1.957,5.471 2.247,5.112 2.388,5.038C2.456,4.973 2.563,4.985 2.664,4.893C2.666,4.852 2.687,4.824 2.696,4.783C2.561,4.85 2.53,4.783 2.384,4.854C2.28,4.931 2.261,4.988 2.197,5.036C2.158,5.064 2.139,5.065 2.132,5.048C1.095,7.023 0.294,9.143 -0.232,11.37C-0.15,11.224 -0.109,11.03 0,10.978M6.63,3.257C6.636,3.258 6.628,3.268 6.63,3.274C6.625,3.27 6.636,3.258 6.63,3.257M6.604,3.501C6.593,3.544 6.599,3.587 6.586,3.628C6.59,3.585 6.599,3.545 6.604,3.501M3.279,5.576C3.287,5.559 3.267,5.55 3.276,5.534C3.294,5.534 3.287,5.559 3.279,5.576M3.253,5.445C3.254,5.393 3.341,5.355 3.368,5.33C3.555,5.2 3.946,4.953 4.15,4.877C4.055,5.256 3.572,5.328 3.354,5.416C3.296,5.413 3.331,5.41 3.263,5.459C3.258,5.47 3.261,5.478 3.267,5.485C3.256,5.474 3.243,5.465 3.253,5.445M2.502,6.066C2.503,6.128 2.512,6.175 2.574,6.14C2.675,6.105 2.666,6.061 2.693,6.003C2.785,5.894 2.88,5.858 2.979,5.818C3.081,5.773 3.093,5.834 3.144,5.791C3.19,5.739 3.229,5.713 3.282,5.667C3.106,5.822 2.727,6.193 2.537,6.269C2.435,6.328 2.478,6.171 2.502,6.066" style="fill-rule:nonzero;"/>
            </g>
            <g transform="matrix(1,0,0,1,621.615,31.5583)">
                <path d="M0,0.025C0.001,0.025 0.002,0.025 0.003,0.025C0.003,0 0,0.009 0,0.025" style="fill-rule:nonzero;"/>
            </g>
            <g transform="matrix(1,0,0,1,614.761,39.3339)">
                <path d="M0,0.044C0.004,0.03 0.009,0.016 0.012,0C-0.003,0.023 -0.003,0.037 0,0.044" style="fill-rule:nonzero;"/>
            </g>
            <g transform="matrix(1,0,0,1,632.105,55.9321)">
                <path d="M0,-2.25C-0.224,-2.314 -0.35,-2.241 -0.582,-2.297C-0.837,-2.389 -1.315,-2.806 -1.476,-3.024C-1.641,-3.113 -1.908,-3.218 -2.208,-3.283C-2.388,-3.273 -2.581,-3.254 -2.786,-3.229C-3.099,-3.24 -3.145,-3.475 -3.474,-3.487C-3.582,-3.488 -3.673,-3.388 -3.797,-3.341C-3.825,-3.341 -3.873,-3.346 -3.901,-3.345C-3.905,-3.446 -3.894,-3.572 -3.944,-3.708C-3.958,-3.799 -4.095,-3.808 -4.231,-3.877C-4.409,-4.019 -4.956,-4.289 -5.225,-4.306C-5.456,-4.313 -5.613,-4.023 -5.753,-3.797C-5.788,-3.741 -5.853,-3.638 -5.903,-3.634C-5.938,-3.638 -5.977,-3.761 -5.98,-3.794C-6.077,-3.799 -6.202,-3.805 -6.319,-3.81C-6.359,-3.961 -6.418,-4.072 -6.571,-4.15C-6.63,-4.175 -6.762,-4.175 -6.772,-4.315C-6.787,-4.754 -6.355,-5.257 -6.13,-5.546C-6.133,-5.657 -6.308,-5.7 -6.394,-5.844C-6.47,-6.007 -6.655,-6.472 -6.666,-6.645C-6.912,-6.72 -7.212,-7.183 -7.428,-7.197C-7.45,-7.207 -7.486,-7.196 -7.51,-7.199C-7.511,-7.207 -7.509,-7.22 -7.51,-7.228C-7.652,-7.228 -7.874,-7.344 -7.963,-7.396C-8.068,-7.391 -8.181,-7.399 -8.313,-7.404C-8.677,-7.477 -9.213,-7.45 -9.319,-7.852C-9.379,-7.846 -9.49,-7.895 -9.513,-7.941C-9.671,-8.297 -9.771,-8.252 -10.027,-8.526C-10.139,-8.532 -10.257,-8.529 -10.375,-8.53C-10.438,-8.714 -10.394,-8.925 -10.551,-8.981C-10.747,-9.061 -10.973,-9.095 -11.073,-9.291C-11.073,-9.321 -11.073,-9.372 -11.074,-9.402C-11.035,-9.383 -10.942,-9.394 -10.893,-9.429C-10.893,-9.429 -11.111,-9.471 -11.228,-9.471C-11.267,-9.453 -11.503,-9.433 -11.523,-9.403C-11.575,-9.244 -11.713,-9.232 -11.88,-9.211C-11.977,-9.209 -12.105,-9.243 -12.108,-9.363C-12.337,-9.374 -12.506,-9.358 -12.708,-9.365C-12.78,-9.383 -12.837,-9.477 -12.838,-9.609C-12.997,-9.652 -13.232,-9.719 -13.279,-9.941C-13.349,-9.942 -13.391,-9.942 -13.462,-9.943C-13.446,-9.782 -13.314,-9.845 -13.264,-9.69C-13.361,-9.69 -13.417,-9.689 -13.514,-9.69C-13.62,-9.604 -13.768,-9.637 -13.769,-9.437C-13.767,-9.275 -13.651,-9.182 -13.645,-9.024C-13.645,-8.979 -13.691,-8.812 -13.74,-8.809C-13.873,-8.806 -13.905,-9.064 -13.909,-9.212C-13.91,-9.312 -13.856,-9.548 -13.819,-9.755C-13.771,-9.754 -13.709,-9.806 -13.718,-9.915C-13.718,-9.926 -13.748,-10.07 -13.808,-10.074C-13.949,-10.076 -13.967,-9.871 -14.098,-9.82C-14.347,-9.703 -14.495,-9.66 -14.721,-9.557C-14.844,-9.496 -14.934,-9.469 -14.968,-9.259C-14.981,-9.167 -14.986,-8.996 -15.048,-8.938C-15.101,-8.871 -15.179,-8.859 -15.188,-8.721C-15.211,-8.719 -15.24,-8.681 -15.24,-8.658C-15.239,-8.635 -15.24,-8.604 -15.239,-8.581C-15.321,-8.552 -15.27,-8.565 -15.343,-8.583C-15.354,-8.578 -15.361,-8.569 -15.369,-8.561C-15.362,-8.573 -15.355,-8.583 -15.351,-8.596C-15.48,-8.765 -15.514,-9.136 -15.754,-9.146C-15.948,-9.157 -16.044,-8.899 -16.258,-8.903C-16.383,-8.917 -16.404,-9.139 -16.475,-9.206C-16.6,-9.302 -16.746,-9.417 -16.748,-9.688C-16.747,-9.956 -16.75,-10.181 -16.742,-10.438C-16.704,-10.553 -16.683,-11.045 -16.677,-11.153C-16.673,-11.208 -16.675,-11.282 -16.671,-11.338C-16.81,-11.382 -16.82,-11.578 -17,-11.571C-17.233,-11.538 -17.418,-11.472 -17.61,-11.451C-17.683,-11.456 -17.682,-11.481 -17.676,-11.574C-17.675,-11.593 -17.675,-11.614 -17.674,-11.633C-17.622,-11.717 -17.57,-11.752 -17.557,-11.879C-17.541,-12.069 -17.537,-12.248 -17.528,-12.446C-17.496,-12.442 -17.505,-12.432 -17.48,-12.452C-17.483,-12.426 -17.493,-12.394 -17.484,-12.369C-17.453,-12.489 -17.399,-12.582 -17.388,-12.768C-17.36,-12.992 -17.256,-13.214 -17.241,-13.386C-17.236,-13.419 -17.237,-13.459 -17.232,-13.493C-17.303,-13.481 -17.332,-13.465 -17.374,-13.493C-17.426,-13.5 -17.383,-13.51 -17.491,-13.506C-17.655,-13.479 -17.836,-13.457 -17.874,-13.112C-17.881,-12.935 -17.988,-12.773 -18.017,-12.634C-18.022,-12.589 -18.006,-12.456 -18.099,-12.44C-18.097,-12.465 -18.105,-12.523 -18.191,-12.491C-18.431,-12.476 -18.369,-12.316 -18.455,-12.288C-18.551,-12.298 -18.426,-12.345 -18.52,-12.409C-18.621,-12.474 -18.603,-12.648 -18.663,-12.841C-18.666,-12.853 -18.673,-12.865 -18.678,-12.878C-18.735,-12.4 -18.78,-11.918 -18.812,-11.432C-18.807,-11.428 -18.802,-11.427 -18.798,-11.422C-18.763,-11.381 -18.822,-11.34 -18.726,-11.334C-18.525,-11.373 -18.645,-11.57 -18.561,-11.577C-18.488,-11.64 -18.53,-11.595 -18.47,-11.5C-18.445,-11.499 -18.444,-11.479 -18.442,-11.504C-18.33,-11.35 -18.31,-10.898 -18.153,-10.734C-18.05,-10.623 -17.977,-10.684 -17.872,-10.587C-17.73,-10.494 -17.74,-10.389 -17.633,-10.397C-17.548,-10.395 -17.601,-10.462 -17.516,-10.46C-17.492,-10.459 -17.503,-10.462 -17.479,-10.462C-17.434,-10.184 -17.354,-10.075 -17.236,-9.879C-17.21,-9.802 -17.175,-9.801 -17.151,-9.675C-17.118,-9.487 -17.179,-9.328 -17.082,-9.202C-17.042,-9.202 -17.054,-9.2 -17.014,-9.201C-17.038,-9.223 -17.024,-9.27 -17.015,-9.31C-17.016,-9.298 -16.783,-9.048 -16.745,-8.976C-16.725,-8.875 -16.719,-8.755 -16.611,-8.714C-16.61,-8.692 -16.597,-8.637 -16.573,-8.638C-16.489,-8.642 -16.399,-8.704 -16.347,-8.619C-16.273,-8.506 -16.206,-8.288 -16.075,-8.271C-15.978,-8.276 -15.965,-8.326 -15.958,-8.457C-15.979,-8.474 -16.023,-8.527 -16.025,-8.572C-16.025,-8.638 -15.828,-8.887 -15.743,-8.892C-15.611,-8.894 -15.706,-8.6 -15.609,-8.527C-15.624,-8.478 -15.659,-8.447 -15.657,-8.402C-15.655,-8.368 -15.586,-8.32 -15.561,-8.3C-15.55,-8.3 -15.54,-8.302 -15.541,-8.312C-15.54,-8.288 -15.554,-8.257 -15.553,-8.232C-15.556,-8.007 -15.398,-8.037 -15.387,-7.768C-15.378,-7.641 -15.421,-7.59 -15.42,-7.439C-15.412,-7.35 -15.369,-7.252 -15.358,-7.157C-15.356,-7.138 -15.358,-7.11 -15.356,-7.091C-15.369,-7.061 -15.378,-7.026 -15.386,-6.993C-15.383,-6.959 -15.348,-6.897 -15.295,-6.86C-15.348,-6.517 -15.547,-6.622 -15.635,-6.359C-15.698,-6.156 -15.726,-5.837 -15.947,-5.856C-15.885,-5.301 -15.977,-5.076 -15.951,-4.799C-15.952,-4.615 -15.904,-4.386 -15.79,-4.364C-15.706,-4.357 -15.748,-4.418 -15.668,-4.334C-15.702,-4.142 -15.816,-4.119 -15.875,-3.946C-15.912,-3.891 -15.945,-3.743 -15.924,-3.599C-15.908,-3.381 -15.779,-3.125 -15.666,-2.973C-15.633,-2.917 -15.583,-2.931 -15.536,-2.853C-15.497,-2.777 -15.464,-2.594 -15.4,-2.497C-15.37,-2.457 -15.333,-2.469 -15.284,-2.392C-15.193,-2.145 -15.115,-1.987 -15.019,-1.694C-14.929,-1.414 -14.843,-1.147 -14.735,-0.848C-14.667,-0.664 -14.532,-0.553 -14.506,-0.361C-14.47,-0.218 -14.497,-0.099 -14.415,0.01C-14.218,0.264 -14.08,0.447 -13.808,0.619C-13.675,0.7 -13.611,0.75 -13.477,0.925C-13.348,1.075 -13.251,1.07 -13.097,1.194C-12.906,1.345 -12.734,1.55 -12.586,1.854C-12.538,1.983 -12.362,2.677 -12.344,2.797C-12.303,2.975 -12.344,3.265 -12.307,3.418C-12.284,3.593 -12.249,3.75 -12.207,3.905C-12.215,4.025 -12.202,4.185 -12.191,4.269C-12.173,4.296 -12.177,4.333 -12.169,4.365C-12.076,4.737 -12.184,4.904 -12.083,5.301C-12.047,5.48 -12.104,5.571 -12.002,5.776C-11.925,6.033 -11.863,6.282 -11.783,6.523C-11.766,6.75 -11.725,6.904 -11.713,7.09C-11.705,7.136 -11.747,7.073 -11.772,7.125C-11.801,7.219 -11.747,7.26 -11.783,7.345C-11.828,7.528 -11.869,7.59 -11.79,7.799C-11.782,7.876 -11.672,8.091 -11.635,8.122C-11.635,8.122 -11.582,8.182 -11.548,8.239C-11.55,8.273 -11.544,8.304 -11.612,8.252C-11.585,8.393 -11.601,8.433 -11.544,8.59C-11.501,8.693 -11.422,8.887 -11.357,8.926C-11.283,8.967 -11.359,8.878 -11.271,8.897C-11.234,8.898 -11.23,8.92 -11.195,8.932C-11.181,8.986 -11.167,9.003 -11.144,9.054C-11.132,9.158 -11.118,9.252 -11.104,9.345C-10.455,10.003 -9.772,10.626 -9.058,11.213C-8.906,11.188 -8.84,11.26 -8.908,11.101C-9.014,10.893 -9.354,10.826 -9.489,10.56C-9.542,10.461 -9.453,10.407 -9.312,10.437C-9.238,10.479 -8.874,10.749 -8.884,10.671C-8.895,10.495 -8.966,10.365 -8.839,10.268C-8.897,10.239 -8.958,10.203 -8.995,10.104C-8.883,10.152 -8.841,10.232 -8.708,10.27C-8.689,10.285 -8.635,10.263 -8.646,10.197C-8.666,10.145 -8.718,10.126 -8.767,10.082C-8.796,10.057 -8.827,10.106 -8.887,10.092C-8.987,10.049 -9.173,9.801 -9.216,9.68C-9.217,9.625 -9.231,9.578 -9.152,9.61C-8.945,9.684 -8.877,9.813 -8.655,9.885C-8.571,9.904 -8.44,9.911 -8.45,9.856C-8.464,9.822 -8.461,9.801 -8.479,9.768C-8.42,9.601 -8.621,9.498 -8.527,9.42C-8.41,9.33 -8.083,9.562 -7.909,9.573C-7.683,9.581 -7.424,9.677 -7.269,9.571C-7.177,9.506 -7.111,9.474 -7.045,9.356C-6.978,9.272 -7.023,9.23 -7.051,9.112C-7.079,8.995 -7.257,8.964 -7.323,8.844C-7.407,8.723 -7.427,8.618 -7.535,8.503C-7.58,8.481 -7.759,8.37 -7.783,8.284C-7.793,8.251 -7.739,8.252 -7.702,8.254C-7.529,8.295 -7.347,8.438 -7.185,8.487C-7.101,8.498 -6.813,8.676 -6.621,8.715C-6.063,8.825 -6.071,8.338 -5.881,8.06C-5.714,7.825 -5.458,7.666 -5.264,7.403C-5.185,7.279 -5.215,7.493 -5.138,7.364C-5.135,7.364 -5.133,7.375 -5.137,7.375C-5.048,7.168 -4.941,6.986 -4.688,6.909C-4.747,6.584 -4.811,6.275 -4.866,5.939C-4.905,5.712 -4.893,5.97 -4.733,5.834C-4.644,5.768 -4.463,5.772 -4.368,5.63C-4.157,5.311 -3.804,5.527 -3.487,5.27C-3.458,5.231 -3.442,5.176 -3.36,5.148C-3.155,5.083 -2.955,5.12 -2.667,5.142C-2.414,5.152 -2.143,5.017 -2.06,4.872C-2.041,4.824 -2.063,4.677 -2.009,4.598C-1.806,4.366 -1.753,4.252 -1.545,3.954C-1.525,3.908 -1.493,3.657 -1.502,3.515C-1.508,3.426 -1.381,3.287 -1.327,3.224C-1.315,3.19 -1.259,3.125 -1.262,3.069C-1.267,2.888 -1.217,2.207 -1.224,1.953C-1.252,1.626 -1.518,1.466 -1.308,1.261C-1.163,1.149 -0.994,1.109 -0.852,0.912C-0.766,0.795 -0.698,0.758 -0.613,0.639C-0.215,0.081 0.432,-0.449 0.415,-1.541C0.406,-1.85 0.319,-2.138 0,-2.25" style="fill-rule:nonzero;"/>
            </g>
            <g transform="matrix(1,0,0,1,614.761,39.3869)">
                <path d="M0,-0.009C-0.001,-0.007 -0.001,-0.005 -0.002,-0.003C0.004,0 0.002,-0.002 0,-0.009" style="fill-rule:nonzero;"/>
            </g>
            <g transform="matrix(1,0,0,1,616.769,40.8977)">
                <path d="M0,-0.227C-0.007,-0.137 -0.013,0.005 0.062,0.001C0.082,-0.011 0.103,-0.046 0.109,-0.069C0.109,-0.148 0.128,-0.223 0.033,-0.232C0.049,-0.232 0.015,-0.224 0,-0.227" style="fill-rule:nonzero;"/>
            </g>
            <g transform="matrix(1,0,0,1,616.831,40.0478)">
                <path d="M0,-0.093C-0.059,-0.083 -0.102,-0.019 -0.125,0.027C-0.053,0.024 -0.002,0.01 0.089,-0.01C0.066,-0.045 0.078,-0.12 0,-0.093" style="fill-rule:nonzero;"/>
            </g>
            <g transform="matrix(1,0,0,1,617.107,40.0928)">
                <path d="M0,0.063C-0.02,0.033 -0.019,0.003 -0.033,-0.031C-0.053,0 -0.022,0.094 0,0.063" style="fill-rule:nonzero;"/>
            </g>
            <g transform="matrix(1,0,0,1,618.003,41.9692)">
                <path d="M0,0.014C0.006,-0.019 0,-0.071 0.007,-0.105C-0.025,-0.028 -0.108,0.047 -0.19,0.032C-0.194,0.054 -0.202,0.09 -0.194,0.111C-0.178,0.111 -0.172,0.111 -0.156,0.108C-0.098,0.119 -0.044,0.064 0,0.014" style="fill-rule:nonzero;"/>
            </g>
            <g transform="matrix(1,0,0,1,622.982,25.7382)">
                <path d="M0,-0.217C-0.086,-0.146 -0.171,-0.073 -0.256,0C-0.169,-0.067 -0.067,-0.115 0.048,-0.173C0.027,-0.197 0.013,-0.21 0,-0.217" style="fill-rule:nonzero;"/>
            </g>
            <g transform="matrix(1,0,0,1,621.245,25.8312)">
                <path d="M0,1.598C-0.194,1.834 0.306,1.59 0.491,1.567C0.688,1.546 0.865,1.456 1.119,1.425C1.146,1.4 1.139,1.481 1.191,1.451C1.24,1.453 1.299,1.402 1.309,1.356C1.367,1.22 0.876,1.3 0.763,1.264C0.817,1.238 0.847,1.24 0.899,1.209C1.05,1.265 1.527,1.135 1.702,1.085C1.766,1.025 1.882,0.886 1.923,0.833C1.938,0.761 1.775,0.824 1.789,0.78C1.791,0.735 1.816,0.724 1.827,0.681C1.766,0.712 1.727,0.717 1.663,0.74C1.702,0.631 1.58,0.748 1.421,0.781C1.326,0.805 1.277,0.767 1.291,0.678C1.24,0.686 1.22,0.705 1.172,0.726C1.173,0.693 1.19,0.687 1.202,0.656C1.253,0.659 1.271,0.63 1.339,0.601C1.34,0.574 1.353,0.57 1.362,0.544C1.271,0.604 1.296,0.588 1.185,0.61C1.193,0.601 1.321,0.51 1.389,0.484C1.819,0.313 1.71,0.61 2.208,0.453C2.333,0.416 2.355,0.339 2.389,0.273C2.577,0.206 2.614,0.153 2.63,0.14C2.632,0.112 2.651,0.107 2.653,0.078C2.791,0.033 2.956,-0.023 2.986,-0.104C3.028,-0.202 2.943,-0.182 2.756,-0.122C2.7,-0.102 2.655,-0.077 2.587,-0.085C2.529,-0.233 2.476,-0.064 2.254,0.015C2.115,0.062 2.097,0.007 2.111,-0.068C1.921,0.001 1.696,0.06 1.717,-0.04C1.602,0.013 1.556,0.028 1.481,0.031C1.587,-0.063 1.659,-0.1 1.825,-0.195C1.791,-0.236 1.762,-0.204 1.708,-0.177C1.602,-0.141 1.534,-0.111 1.463,-0.078C0.821,0.468 0.206,1.044 -0.381,1.647C-0.264,1.636 -0.176,1.641 0,1.598" style="fill-rule:nonzero;"/>
            </g>
            <g transform="matrix(1,0,0,1,636.827,23.5276)">
                <path d="M0,-1.062C0.061,-1.07 0.302,-1.08 0.31,-1.137C0.337,-1.181 0.177,-1.154 0.18,-1.244C0.243,-1.234 0.326,-1.256 0.388,-1.254C0.966,-1.303 0.795,-1.057 1.462,-1.066C1.616,-1.06 1.844,-1.061 1.843,-1.132C1.84,-1.388 0.98,-1.442 0.48,-1.576C0.476,-1.608 0.488,-1.609 0.485,-1.641C0.509,-1.644 0.547,-1.637 0.663,-1.649C0.757,-1.543 1.152,-1.475 1.411,-1.481C1.585,-1.477 1.617,-1.534 1.625,-1.611C1.621,-1.663 1.561,-1.689 1.477,-1.704C1.482,-1.703 1.487,-1.702 1.491,-1.701C1.613,-1.78 2.149,-1.758 2.255,-1.882C2.192,-1.879 2.104,-1.9 2.119,-1.941C2.371,-1.971 2.654,-1.99 2.738,-2.062C2.565,-2.058 2.201,-2.029 2.193,-2.137C2.215,-2.218 2.405,-2.203 2.631,-2.196C2.567,-2.231 2.633,-2.233 2.632,-2.285C2.629,-2.38 2.436,-2.365 2.433,-2.451C2.239,-2.464 2.01,-2.4 2.003,-2.509C2.031,-2.544 2.122,-2.565 2.274,-2.572C2.515,-2.581 3.2,-2.539 3.216,-2.637C3.213,-2.791 2.711,-2.708 2.641,-2.764C2.714,-2.766 2.819,-2.778 2.883,-2.789C2.736,-2.804 2.57,-2.856 2.35,-2.849C2.202,-2.843 2.094,-2.824 1.949,-2.842C2.039,-2.866 2.015,-2.949 2.181,-2.982C2.427,-3.007 3.065,-2.862 3.09,-2.979C3.112,-2.979 3.108,-2.965 3.09,-3.024C3.354,-3.062 3.679,-3.009 3.685,-3.099C3.685,-3.127 3.706,-3.127 3.717,-3.125C3.711,-3.127 3.702,-3.131 3.684,-3.138C3.917,-3.169 4.279,-3.138 4.273,-3.225C4.188,-3.229 4.087,-3.227 3.997,-3.231C4.583,-3.23 4.855,-3.305 5.285,-3.307C5.359,-3.316 5.595,-3.29 5.604,-3.357C5.575,-3.425 4.982,-3.478 4.818,-3.49C4.682,-3.481 4.616,-3.515 4.561,-3.462C4.36,-3.473 4.152,-3.482 3.937,-3.477C3.734,-3.464 3.695,-3.435 3.456,-3.425C3.407,-3.427 3.156,-3.435 3.155,-3.435C2.87,-3.435 2.575,-3.437 2.283,-3.427C2.07,-3.382 1.408,-3.186 1.057,-3.14C1.11,-3.181 1.919,-3.392 1.958,-3.425C1.953,-3.509 1.877,-3.513 1.638,-3.499C1.203,-3.488 0.42,-3.294 0.1,-3.262C0.002,-3.251 0.557,-3.408 0.602,-3.434C0.364,-3.422 -1.777,-3.217 -1.981,-3.212C-1.051,-3.332 -0.137,-3.423 0.824,-3.478C1.19,-3.529 2.044,-3.539 2.124,-3.636C1.803,-3.621 1.361,-3.605 1.006,-3.622C0.408,-3.644 -0.116,-3.709 -0.875,-3.638C-1.489,-3.575 -2.065,-3.522 -2.672,-3.429C-3.035,-3.375 -3.354,-3.308 -3.674,-3.238C-6.332,-2.54 -8.829,-1.437 -11.097,-0.001C-10.626,-0.092 -10.333,-0.03 -10.225,0.136C-10.232,0.168 -10.233,0.17 -10.25,0.199C-10.143,0.175 -9.961,0.099 -10.004,0.19C-10.042,0.297 -10.286,0.34 -10.318,0.446C-10.356,0.538 -10.251,0.49 -10.046,0.434C-9.889,0.398 -9.836,0.314 -9.737,0.281C-9.354,0.2 -9.332,0.35 -8.981,0.32C-9.003,0.355 -8.996,0.386 -9.121,0.417C-9.4,0.495 -9.545,0.46 -9.793,0.526C-9.901,0.548 -9.878,0.535 -9.997,0.581C-9.995,0.615 -9.966,0.635 -9.92,0.644C-9.937,0.648 -9.953,0.651 -9.972,0.656C-10.08,0.703 -10.23,0.743 -10.254,0.815C-10.282,0.89 -10.176,0.933 -10.082,0.917C-9.994,0.903 -9.922,0.867 -9.829,0.851C-9.633,0.792 -9.387,0.726 -9.333,0.64C-9.48,0.656 -9.566,0.642 -9.649,0.631C-9.38,0.589 -9.02,0.49 -8.806,0.463C-8.958,0.631 -9.14,0.7 -9.261,0.869C-9.41,0.874 -9.421,0.88 -9.595,0.959C-9.598,0.961 -9.593,0.968 -9.598,0.968C-9.859,1.109 -9.96,1.213 -10.147,1.352C-10.172,1.397 -10.164,1.418 -10.182,1.465C-10.115,1.421 -10.029,1.402 -9.948,1.407C-9.999,1.464 -10.078,1.499 -10.102,1.561C-10.138,1.717 -9.837,1.673 -9.794,1.759C-9.754,1.824 -9.776,1.9 -9.72,1.905C-9.518,1.924 -9.44,1.755 -9.273,1.823C-9.363,1.86 -9.458,1.879 -9.483,1.963C-9.517,2.115 -9.189,2.378 -8.949,2.426C-8.909,2.426 -8.961,2.506 -8.884,2.523C-8.69,2.549 -8.564,2.49 -8.496,2.606C-8.339,2.574 -8.121,2.477 -7.936,2.438C-7.598,2.393 -7.697,2.647 -7.35,2.599C-7.277,2.596 -7.239,2.551 -7.076,2.519C-7.055,2.56 -7.023,2.578 -6.925,2.554C-6.553,2.499 -6.669,2.234 -6.35,2.113C-6.362,2.037 -6.316,1.901 -6.297,1.799C-6.264,1.645 -5.599,1.481 -5.546,1.303C-5.555,1.233 -5.691,1.248 -5.687,1.203C-5.679,1.172 -5.624,1.146 -5.582,1.128C-5.591,1.106 -5.591,1.1 -5.6,1.079C-5.552,0.903 -4.858,0.852 -4.545,0.715C-4.423,0.65 -4.459,0.616 -4.253,0.555C-4.255,0.598 -4.253,0.617 -4.268,0.658C-4.207,0.651 -4.123,0.644 -4.063,0.635C-3.756,0.511 -3.3,0.507 -3.005,0.373C-2.779,0.283 -3.132,0.032 -2.855,-0.092C-2.749,-0.121 -2.623,-0.167 -2.498,-0.213C-2.475,-0.259 -2.36,-0.283 -2.211,-0.319C-1.996,-0.335 -1.773,-0.352 -1.559,-0.373C-1.009,-0.491 -0.628,-0.498 -0.107,-0.587C0.299,-0.648 0.443,-0.786 0.92,-0.862C1.177,-0.906 1.316,-0.906 1.528,-0.97C1.243,-0.983 0.016,-0.927 0,-1.062M1.084,-1.786C1.184,-1.74 1.311,-1.728 1.455,-1.707C1.264,-1.733 0.97,-1.708 0.877,-1.778C0.938,-1.784 1.022,-1.781 1.084,-1.786" style="fill-rule:nonzero;"/>
            </g>
            <g transform="matrix(1,0,0,1,640.044,21.3813)">
                <path d="M0,-0.113C-0.073,-0.113 -0.171,-0.113 -0.244,-0.113C-0.28,-0.092 -0.366,-0.095 -0.381,-0.06C-0.381,-0.028 -0.3,0 -0.204,0C-0.061,-0.001 0.169,-0.048 0.232,-0.06C0.162,-0.061 0.07,-0.061 0,-0.061C0.028,-0.061 0,-0.085 0,-0.113" style="fill-rule:nonzero;"/>
            </g>
            <g transform="matrix(1,0,0,1,624.809,30.4286)">
                <path d="M0,-0.153C0.02,-0.173 0.012,-0.21 0.016,-0.239C0.04,-0.245 0.066,-0.28 0.084,-0.298C0.029,-0.322 -0.032,-0.33 -0.102,-0.309C-0.185,-0.297 -0.195,-0.235 -0.298,-0.198C-0.291,-0.226 -0.289,-0.255 -0.283,-0.283C-0.173,-0.469 0.09,-0.62 0.134,-0.826C0.144,-0.862 0.116,-0.902 0.067,-0.902C-0.134,-0.857 -0.231,-0.703 -0.348,-0.551C-0.565,-0.306 -0.789,0.141 -1.134,0.352C-1.131,0.382 -1.086,0.387 -1.049,0.382C-1.062,0.396 -1.063,0.42 -1.06,0.439C-1.068,0.444 -1.296,0.627 -1.305,0.664C-1.324,0.686 -1.265,0.749 -1.205,0.736C-1.047,0.72 -1.009,0.651 -0.825,0.608C-0.691,0.594 -0.644,0.633 -0.474,0.609C-0.39,0.603 -0.321,0.553 -0.221,0.516C-0.168,0.616 -0.003,0.52 0.12,0.495C0.072,0.544 -0.04,0.568 -0.042,0.676C-0.055,0.69 0.008,0.669 0.032,0.663C0.196,0.646 0.32,0.472 0.438,0.337C0.531,0.396 0.421,0.597 0.523,0.582C0.559,0.575 0.586,0.593 0.622,0.586C0.618,0.624 0.624,0.696 0.718,0.688C0.859,0.673 0.949,0.543 0.959,0.416C0.98,0.323 0.875,0.333 0.901,0.222C0.832,0.268 0.866,0.291 0.726,0.308C0.74,0.243 0.66,0.213 0.662,0.165C0.672,0.128 0.788,0.086 0.812,-0.003C0.763,0 0.69,0.028 0.668,0.049C0.701,-0.083 0.731,-0.174 0.732,-0.273C0.683,-0.227 0.503,-0.207 0.369,-0.21C0.324,-0.187 0.26,-0.164 0.213,-0.145C0.224,-0.156 0.218,-0.177 0.221,-0.193C0.149,-0.184 0.072,-0.159 0,-0.153" style="fill-rule:nonzero;"/>
            </g>
            <g transform="matrix(1,0,0,1,618.101,31.3096)">
                <path d="M0,0.063C0.012,0.071 0.011,0.053 0.025,0.05C0.053,-0.06 -0.008,-0.045 -0.092,-0.002C-0.105,0.017 -0.1,0.036 -0.112,0.055C-0.074,0.123 -0.065,0.101 0,0.063" style="fill-rule:nonzero;"/>
            </g>
            <g transform="matrix(1,0,0,1,654.613,34.7583)">
                <path d="M0,-0.394C-0.219,-0.441 -0.277,-0.338 -0.452,-0.363C-0.645,-0.378 -0.778,-0.56 -1.059,-0.464C-1.058,-0.439 -1.049,-0.402 -1.051,-0.376C-1.009,-0.326 -0.888,-0.305 -0.852,-0.293C-0.621,-0.205 -0.427,0.025 -0.192,0.102C-0.185,0.134 -0.116,0.166 -0.078,0.164C-0.042,0.162 -0.01,0.117 -0.006,0.085C-0.015,-0.002 -0.084,-0.034 -0.093,-0.124C-0.106,-0.166 -0.04,-0.256 -0.04,-0.256C-0.028,-0.299 -0.018,-0.353 0,-0.394" style="fill-rule:nonzero;"/>
            </g>
            <g transform="matrix(1,0,0,1,652.221,32.5906)">
                <path d="M0,-0.336C-0.035,-0.351 -0.07,-0.422 -0.069,-0.476C-0.131,-0.469 -0.19,-0.361 -0.282,-0.378C-0.31,-0.37 -0.35,-0.366 -0.379,-0.364C-0.322,-0.274 -0.224,0.096 -0.078,0.14C-0.039,0.076 -0.024,-0.196 0,-0.336" style="fill-rule:nonzero;"/>
            </g>
            <g transform="matrix(1,0,0,1,651.978,33.327)">
                <path d="M0,-0.109C0.011,-0.034 -0.067,0.046 -0.064,0.133C-0.057,0.22 -0.038,0.388 0.103,0.412C0.201,0.412 0.447,0.271 0.444,0.094C0.424,-0.107 0.446,-0.203 0.308,-0.423C0.271,-0.423 0.208,-0.495 0.117,-0.516C0.008,-0.521 -0.011,-0.405 -0.166,-0.384C-0.156,-0.298 -0.01,-0.218 0,-0.109" style="fill-rule:nonzero;"/>
            </g>
            <g transform="matrix(1,0,0,1,649.807,33.2287)">
                <path d="M0,0.085C-0.013,0.055 -0.086,-0.039 -0.084,-0.061C-0.157,-0.046 -0.236,-0.017 -0.318,0.012C-0.315,0.028 -0.164,0.135 -0.115,0.14C-0.079,0.146 -0.005,0.118 0,0.085" style="fill-rule:nonzero;"/>
            </g>
            <g transform="matrix(1,0,0,1,652.028,27.9135)">
                <path d="M0,-0.091C0.016,-0.037 0.1,0.004 0.212,0.009C0.213,0.025 0.214,0.039 0.22,0.053C0.218,0.024 0.247,0.042 0.236,-0.001C0.22,-0.056 0.169,-0.052 0.156,-0.118C0.106,-0.129 0.042,-0.134 -0.009,-0.144C-0.007,-0.126 -0.002,-0.11 0,-0.091" style="fill-rule:nonzero;"/>
            </g>
            <g transform="matrix(1,0,0,1,652.376,27.7727)">
                <path d="M0,0.209C-0.008,0.204 -0.021,0.194 -0.021,0.185C-0.037,0.189 -0.044,0.199 -0.059,0.204C-0.052,0.21 0.01,0.252 0.067,0.256C0.25,0.297 0.153,0.091 0.297,0.088C0.237,0.003 0.219,-0.055 0.048,-0.087C-0.008,-0.088 -0.095,0.024 -0.087,0.045C-0.084,0.079 0.025,0.128 0.109,0.159C0.111,0.188 0.056,0.217 0,0.209" style="fill-rule:nonzero;"/>
            </g>
            <g transform="matrix(1,0,0,1,654.661,27.6541)">
                <path d="M0,0.008C0.002,0.041 0.025,0.088 0.096,0.101C0.128,0.106 0.217,0.097 0.218,0.081C0.217,0.058 0.198,0.043 0.204,0.021C0.221,0.021 0.242,-0.001 0.25,-0.029C0.224,-0.052 0.18,-0.076 0.153,-0.098C0.153,-0.098 0.095,-0.093 0.095,-0.065C0.116,-0.047 0.138,-0.014 0.164,0.007C0.099,0.005 0.065,0.013 0,0.008" style="fill-rule:nonzero;"/>
            </g>
            <g transform="matrix(1,0,0,1,658.621,35.9325)">
                <path d="M0,0.139C-0.225,0.053 -0.484,-0.057 -0.747,-0.043C-0.613,0.054 -0.384,0.111 -0.287,0.12C-0.206,0.147 -0.146,0.196 0,0.139" style="fill-rule:nonzero;"/>
            </g>
            <g transform="matrix(1,0,0,1,661.103,36.5976)">
                <path d="M0,-0.29C-0.153,-0.285 -0.402,-0.229 -0.544,-0.172C-0.535,-0.152 -0.51,-0.103 -0.485,-0.103C-0.483,-0.071 -0.443,-0.03 -0.406,-0.03C-0.301,0 -0.14,-0.028 -0.115,-0.099C-0.112,-0.134 -0.15,-0.205 -0.112,-0.212C-0.04,-0.245 -0.016,-0.176 0,-0.29" style="fill-rule:nonzero;"/>
            </g>
            <g transform="matrix(1,0,0,1,622.57,30.6613)">
                <path d="M0,0.223C0.096,0.212 0.128,0.177 0.167,0.131C-0.048,0.081 -0.21,-0.045 -0.563,0.097C-0.449,0.154 -0.179,0.268 0,0.223" style="fill-rule:nonzero;"/>
            </g>
            <g transform="matrix(1,0,0,1,621.894,31.9769)">
                <path d="M0,-0.234C-0.024,-0.224 -0.04,-0.18 -0.057,-0.158C-0.062,-0.091 0.31,0 0.381,-0.016C0.405,-0.017 0.51,-0.099 0.535,-0.151C0.532,-0.169 0.543,-0.19 0.546,-0.209C0.435,-0.183 0.323,-0.164 0.211,-0.136C0.09,-0.144 0.041,-0.148 0,-0.234" style="fill-rule:nonzero;"/>
            </g>
            <g transform="matrix(1,0,0,1,622.855,31.5239)">
                <path d="M0,0.44C0.119,0.404 0.27,0.329 0.278,0.261C0.291,0.244 0.286,0.215 0.29,0.193C0.011,0.248 0.197,0.149 0.222,0.065C0.228,0.027 0.175,0.027 0.159,-0.016C0.031,0.031 -0.156,0.313 -0.165,0.369C-0.181,0.424 -0.121,0.456 0,0.44" style="fill-rule:nonzero;"/>
            </g>
        </g>
    </g>
    <g transform="matrix(1.33333,0,0,1.33333,35.39,0.927333)">
        <path d="M0,51.694C14.275,51.694 25.847,40.122 25.847,25.847C25.847,11.572 14.275,0 0,0C-14.275,0 -25.847,11.572 -25.847,25.847C-25.847,40.122 -14.275,51.694 0,51.694Z" style="fill:none;stroke:black;stroke-width:1.39px;"/>
    </g>
    <g transform="matrix(0.0106853,0,0,-0.0106853,141.449,383.322)">
        <path d="M-9926.33,32561.8C-9926.2,32561.3 -9925.7,32561.3 -9925.08,32561.3C-9925.45,32561.3 -9926.2,32561.3 -9926.33,32561.8Z" style="fill:url(#_Radial6);fill-rule:nonzero;"/>
    </g>
    <g transform="matrix(0.0106853,0,0,-0.0106853,141.45,383.322)">
        <path d="M-9926.36,32561.8C-9926.23,32561.3 -9925.73,32561.3 -9925.11,32561.3C-9925.48,32561.3 -9926.23,32561.3 -9926.36,32561.8Z" style="fill:url(#_Radial7);fill-rule:nonzero;"/>
    </g>
    <g transform="matrix(0.0106853,0,0,-0.0106853,141.45,383.321)">
        <path d="M-9926.39,32561.7C-9926.27,32561.2 -9925.77,32561.2 -9925.15,32561.2C-9925.52,32561.2 -9926.27,32561.2 -9926.39,32561.7Z" style="fill:url(#_Radial8);fill-rule:nonzero;"/>
    </g>
    <g transform="matrix(0.0106853,0,0,-0.0106853,141.451,383.32)">
        <path d="M-9926.46,32561.6C-9926.34,32561.1 -9925.84,32561.1 -9925.22,32561.1C-9925.59,32561.1 -9926.34,32561.1 -9926.46,32561.6Z" style="fill:url(#_Radial9);fill-rule:nonzero;"/>
    </g>
    <g transform="matrix(1.33333,0,0,1.33333,11.2425,43.4352)">
        <path d="M0,8.715L2.9,8.715L2.9,5.468L5.384,5.468L5.384,3.199L2.9,3.199L2.9,2.27L5.566,2.27L5.566,0L0,0L0,8.715ZM5.779,8.715L8.618,8.715L8.618,5.613L8.953,5.613C9.419,5.613 9.601,5.782 9.662,6.216C9.764,6.965 9.855,8.063 10.027,8.715L12.866,8.715C12.532,7.399 12.552,6.168 12.39,5.42C12.248,4.756 11.862,4.382 11.153,4.309L11.153,4.285C12.248,3.972 12.603,3.211 12.603,2.209C12.603,0.568 11.68,0 10.108,0L5.779,0L5.779,8.715ZM8.618,3.633L8.618,1.98L8.882,1.98C9.449,1.98 9.824,2.113 9.824,2.752C9.824,3.404 9.419,3.633 8.861,3.633L8.618,3.633ZM13.059,8.715L15.959,8.715L15.959,0L13.059,0L13.059,8.715ZM16.587,8.715L22.244,8.715L22.244,6.446L19.365,6.446L19.365,5.468L21.94,5.468L21.94,3.199L19.365,3.199L19.365,2.27L22.153,2.27L22.153,0L16.587,0L16.587,8.715ZM22.569,8.715L24.921,8.715L24.921,3.404L24.941,3.404L26.493,8.715L29.97,8.715L29.97,0L27.618,0L27.618,5.275L27.598,5.275L26.046,0L22.569,0L22.569,8.715ZM30.599,8.715L34.208,8.715C36.459,8.715 37.899,7.086 37.899,4.454C37.899,1.871 36.966,0 34.036,0L30.599,0L30.599,8.715ZM33.438,1.98L33.721,1.98C34.188,1.98 34.462,2.185 34.644,2.535C34.837,2.897 34.898,3.513 34.898,4.358C34.898,5.203 34.837,5.818 34.644,6.18C34.462,6.53 34.188,6.736 33.721,6.736L33.438,6.736L33.438,1.98Z" style="fill-rule:nonzero;stroke:black;stroke-width:0.93px;stroke-miterlimit:6.04;"/>
    </g>
    <g transform="matrix(1.33333,0,0,1.33333,49.5728,34.7405)">
        <path d="M0,5.996L1.688,5.996L1.688,0L-1.081,0L-1.632,3.571L-1.646,3.571L-2.198,0L-4.967,0L-4.967,5.996L-3.279,5.996L-3.279,1.711L-3.265,1.711L-2.553,5.996L-0.726,5.996L-0.014,1.711L0,1.711L0,5.996ZM3.349,5.996L5.344,5.996L5.344,3.92L7.039,0L5.128,0L4.43,2.516L4.416,2.516L3.718,0L1.653,0L3.349,3.92L3.349,5.996Z" style="fill-rule:nonzero;stroke:black;stroke-width:0.93px;stroke-miterlimit:6.04;"/>
    </g>
    <g transform="matrix(1.33333,0,0,1.33333,12.4456,22.2769)">
        <path d="M0,8.715L3.143,8.715L3.822,3.066L3.843,3.066L4.522,8.715L7.665,8.715L9.247,0L6.651,0L6.033,5.48L6.012,5.48L5.333,0L2.332,0L1.653,5.48L1.632,5.48L1.014,0L-1.582,0L0,8.715ZM11.619,5.191L12.258,1.907L12.278,1.907L12.856,5.191L11.619,5.191ZM8.111,8.715L10.889,8.715L11.183,7.315L13.282,7.315L13.566,8.715L16.567,8.715L14.215,0L10.453,0L8.111,8.715ZM17.246,8.715L20.146,8.715L20.146,2.342L21.951,2.342L21.951,0L15.442,0L15.442,2.342L17.246,2.342L17.246,8.715ZM22.093,8.715L27.75,8.715L27.75,6.446L24.871,6.446L24.871,5.468L27.446,5.468L27.446,3.199L24.871,3.199L24.871,2.269L27.659,2.269L27.659,0L22.093,0L22.093,8.715ZM28.075,8.715L30.913,8.715L30.913,5.613L31.248,5.613C31.714,5.613 31.897,5.782 31.958,6.216C32.059,6.965 32.15,8.063 32.323,8.715L35.162,8.715C34.827,7.399 34.847,6.168 34.685,5.42C34.543,4.756 34.158,4.382 33.448,4.309L33.448,4.285C34.543,3.971 34.898,3.211 34.898,2.209C34.898,0.568 33.975,0 32.404,0L28.075,0L28.075,8.715ZM30.913,3.633L30.913,1.98L31.177,1.98C31.745,1.98 32.12,2.113 32.12,2.752C32.12,3.404 31.714,3.633 31.157,3.633L30.913,3.633Z" style="fill-rule:nonzero;stroke:black;stroke-width:0.93px;stroke-miterlimit:6.04;"/>
    </g>
    <g transform="matrix(1.33333,0,0,1.33333,25.4727,19.8712)">
        <path d="M0,-3.438C0.398,-3.438 0.614,-3.297 0.614,-2.898C0.614,-2.549 0.467,-2.3 0.007,-2.3L-0.258,-2.3L-0.258,-3.438L0,-3.438ZM-2.128,1.279L0.684,1.279C1.939,1.279 2.616,0.59 2.616,-0.44C2.616,-1.079 2.309,-1.719 1.535,-1.844L1.535,-1.86C2.281,-2.068 2.484,-2.583 2.484,-3.164C2.484,-4.169 1.953,-4.717 0.865,-4.717L-2.128,-4.717L-2.128,1.279ZM-0.258,-1.171L0,-1.171C0.467,-1.171 0.705,-0.996 0.705,-0.631C0.705,-0.191 0.509,0 0.021,0L-0.258,0L-0.258,-1.171ZM2.881,1.279L6.774,1.279L6.774,-0.282L4.793,-0.282L4.793,-0.955L6.565,-0.955L6.565,-2.516L4.793,-2.516L4.793,-3.156L6.711,-3.156L6.711,-4.717L2.881,-4.717L2.881,1.279Z" style="fill-rule:nonzero;stroke:black;stroke-width:0.93px;stroke-miterlimit:6.04;"/>
    </g>
    <g transform="matrix(1.33333,0,0,1.33333,11.2425,43.4352)">
        <path d="M0,8.715L2.9,8.715L2.9,5.468L5.384,5.468L5.384,3.199L2.9,3.199L2.9,2.27L5.566,2.27L5.566,0L0,0L0,8.715ZM5.779,8.715L8.618,8.715L8.618,5.613L8.953,5.613C9.419,5.613 9.601,5.782 9.662,6.216C9.764,6.965 9.855,8.063 10.027,8.715L12.866,8.715C12.532,7.399 12.552,6.168 12.39,5.42C12.248,4.756 11.862,4.382 11.153,4.309L11.153,4.285C12.248,3.972 12.603,3.211 12.603,2.209C12.603,0.568 11.68,0 10.108,0L5.779,0L5.779,8.715ZM8.618,3.633L8.618,1.98L8.882,1.98C9.449,1.98 9.824,2.113 9.824,2.752C9.824,3.404 9.419,3.633 8.861,3.633L8.618,3.633ZM13.059,8.715L15.959,8.715L15.959,0L13.059,0L13.059,8.715ZM16.587,8.715L22.244,8.715L22.244,6.446L19.365,6.446L19.365,5.468L21.94,5.468L21.94,3.199L19.365,3.199L19.365,2.27L22.153,2.27L22.153,0L16.587,0L16.587,8.715ZM22.569,8.715L24.921,8.715L24.921,3.404L24.941,3.404L26.493,8.715L29.97,8.715L29.97,0L27.618,0L27.618,5.275L27.598,5.275L26.046,0L22.569,0L22.569,8.715ZM30.599,8.715L34.208,8.715C36.459,8.715 37.899,7.086 37.899,4.454C37.899,1.871 36.966,0 34.036,0L30.599,0L30.599,8.715ZM33.438,1.98L33.721,1.98C34.188,1.98 34.462,2.185 34.644,2.535C34.837,2.897 34.898,3.513 34.898,4.358C34.898,5.203 34.837,5.818 34.644,6.18C34.462,6.53 34.188,6.736 33.721,6.736L33.438,6.736L33.438,1.98Z" style="fill:white;fill-rule:nonzero;"/>
    </g>
    <g transform="matrix(1.33333,0,0,1.33333,49.5728,34.7405)">
        <path d="M0,5.996L1.688,5.996L1.688,0L-1.081,0L-1.632,3.571L-1.646,3.571L-2.198,0L-4.967,0L-4.967,5.996L-3.279,5.996L-3.279,1.711L-3.265,1.711L-2.553,5.996L-0.726,5.996L-0.014,1.711L0,1.711L0,5.996ZM3.349,5.996L5.344,5.996L5.344,3.92L7.039,0L5.128,0L4.43,2.516L4.416,2.516L3.718,0L1.653,0L3.349,3.92L3.349,5.996Z" style="fill:white;fill-rule:nonzero;"/>
    </g>
    <g transform="matrix(1.33333,0,0,1.33333,12.4456,22.2769)">
        <path d="M0,8.715L3.143,8.715L3.822,3.066L3.843,3.066L4.522,8.715L7.665,8.715L9.247,0L6.651,0L6.033,5.48L6.012,5.48L5.333,0L2.332,0L1.653,5.48L1.632,5.48L1.014,0L-1.582,0L0,8.715ZM11.619,5.191L12.258,1.907L12.278,1.907L12.856,5.191L11.619,5.191ZM8.111,8.715L10.889,8.715L11.183,7.315L13.282,7.315L13.566,8.715L16.567,8.715L14.215,0L10.453,0L8.111,8.715ZM17.246,8.715L20.146,8.715L20.146,2.342L21.951,2.342L21.951,0L15.442,0L15.442,2.342L17.246,2.342L17.246,8.715ZM22.093,8.715L27.75,8.715L27.75,6.446L24.871,6.446L24.871,5.468L27.446,5.468L27.446,3.199L24.871,3.199L24.871,2.269L27.659,2.269L27.659,0L22.093,0L22.093,8.715ZM28.075,8.715L30.913,8.715L30.913,5.613L31.248,5.613C31.714,5.613 31.897,5.782 31.958,6.216C32.059,6.965 32.15,8.063 32.323,8.715L35.162,8.715C34.827,7.399 34.847,6.168 34.685,5.42C34.543,4.756 34.158,4.382 33.448,4.309L33.448,4.285C34.543,3.971 34.898,3.211 34.898,2.209C34.898,0.568 33.975,0 32.404,0L28.075,0L28.075,8.715ZM30.913,3.633L30.913,1.98L31.177,1.98C31.745,1.98 32.12,2.113 32.12,2.752C32.12,3.404 31.714,3.633 31.157,3.633L30.913,3.633Z" style="fill:white;fill-rule:nonzero;"/>
    </g>
    <g transform="matrix(1.33333,0,0,1.33333,25.4727,19.8712)">
        <path d="M0,-3.438C0.398,-3.438 0.614,-3.297 0.614,-2.898C0.614,-2.549 0.467,-2.3 0.007,-2.3L-0.258,-2.3L-0.258,-3.438L0,-3.438ZM-2.128,1.279L0.684,1.279C1.939,1.279 2.616,0.59 2.616,-0.44C2.616,-1.079 2.309,-1.719 1.535,-1.844L1.535,-1.86C2.281,-2.068 2.484,-2.583 2.484,-3.164C2.484,-4.169 1.953,-4.717 0.865,-4.717L-2.128,-4.717L-2.128,1.279ZM-0.258,-1.171L0,-1.171C0.467,-1.171 0.705,-0.996 0.705,-0.631C0.705,-0.191 0.509,0 0.021,0L-0.258,0L-0.258,-1.171ZM2.881,1.279L6.774,1.279L6.774,-0.282L4.793,-0.282L4.793,-0.955L6.565,-0.955L6.565,-2.516L4.793,-2.516L4.793,-3.156L6.711,-3.156L6.711,-4.717L2.881,-4.717L2.881,1.279Z" style="fill:white;fill-rule:nonzero;"/>
    </g>
    <defs>
        <radialGradient id="_Radial1" cx="0" cy="0" r="1" gradientUnits="userSpaceOnUse" gradientTransform="matrix(0,1,1,0,-0.423832,0.423832)"><stop offset="0" style="stop-color:rgb(255,231,0);stop-opacity:1"/><stop offset="0.74" style="stop-color:rgb(242,140,0);stop-opacity:1"/><stop offset="1" style="stop-color:rgb(235,91,37);stop-opacity:1"/></radialGradient>
        <radialGradient id="_Radial2" cx="0" cy="0" r="1" gradientUnits="userSpaceOnUse" gradientTransform="matrix(1,0,0,-1,0,0.534395)"><stop offset="0" style="stop-color:rgb(98,198,233);stop-opacity:1"/><stop offset="0.65" style="stop-color:rgb(0,110,171);stop-opacity:1"/><stop offset="1" style="stop-color:rgb(0,66,92);stop-opacity:1"/><stop offset="1" style="stop-color:rgb(0,66,92);stop-opacity:1"/></radialGradient>
        <radialGradient id="_Radial3" cx="0" cy="0" r="1" gradientUnits="userSpaceOnUse" gradientTransform="matrix(1,0,0,-1,0,-0.745972)"><stop offset="0" style="stop-color:rgb(98,198,233);stop-opacity:1"/><stop offset="0.65" style="stop-color:rgb(0,110,171);stop-opacity:1"/><stop offset="1" style="stop-color:rgb(0,66,92);stop-opacity:1"/><stop offset="1" style="stop-color:rgb(0,66,92);stop-opacity:1"/></radialGradient>
        <radialGradient id="_Radial4" cx="0" cy="0" r="1" gradientUnits="userSpaceOnUse" gradientTransform="matrix(1,0,0,-1,0,0.860863)"><stop offset="0" style="stop-color:rgb(98,198,233);stop-opacity:1"/><stop offset="0.65" style="stop-color:rgb(0,110,171);stop-opacity:1"/><stop offset="1" style="stop-color:rgb(0,66,92);stop-opacity:1"/><stop offset="1" style="stop-color:rgb(0,66,92);stop-opacity:1"/></radialGradient>
        <radialGradient id="_Radial6" cx="0" cy="0" r="1" gradientUnits="userSpaceOnUse" gradientTransform="matrix(0.98472,0.0164797,0.0164592,-0.983501,0.0152795,65123.1)"><stop offset="0" style="stop-color:rgb(143,173,219);stop-opacity:1"/><stop offset="1" style="stop-color:rgb(205,213,238);stop-opacity:1"/></radialGradient>
        <radialGradient id="_Radial7" cx="0" cy="0" r="1" gradientUnits="userSpaceOnUse" gradientTransform="matrix(0.936339,0.0201874,0.0201551,-0.934839,0.0187172,65123)"><stop offset="0" style="stop-color:rgb(205,213,238);stop-opacity:1"/><stop offset="0.97" style="stop-color:rgb(155,180,223);stop-opacity:1"/><stop offset="1" style="stop-color:rgb(143,173,219);stop-opacity:1"/></radialGradient>
        <radialGradient id="_Radial8" cx="0" cy="0" r="1" gradientUnits="userSpaceOnUse" gradientTransform="matrix(0.866003,0.0366671,0.0365496,-0.863229,0.0339968,65122.9)"><stop offset="0" style="stop-color:rgb(143,173,219);stop-opacity:1"/><stop offset="1" style="stop-color:rgb(205,213,238);stop-opacity:1"/></radialGradient>
        <radialGradient id="_Radial9" cx="0" cy="0" r="1" gradientUnits="userSpaceOnUse" gradientTransform="matrix(0.528026,0.293337,0.279259,-0.502685,0.271974,65122.5)"><stop offset="0" style="stop-color:rgb(48,86,163);stop-opacity:1"/><stop offset="1" style="stop-color:rgb(143,173,219);stop-opacity:1"/></radialGradient>
    </defs>
</svg>
